<svg enable-background="new 0 0 240 240" viewBox="0 0 240 240" xmlns="http://www.w3.org/2000/svg"><path d="m97.03 217.02c.01.01.02.01.03.02 0-.02 0-.03 0-.05z"/><path d="m200.5 80.94-.03-.04c0 .02.02.03.03.04z"/><path d="m85.99 182.94h.03c0-.01 0-.02 0-.03z"/><path d="m109.27 11.58c.01-.01.02-.02.03-.03z"/><path d="m194.02 101.09c0-.01 0-.02 0-.03-.01 0-.02 0-.03 0z"/><path d="m179.14 178.13c0-.01 0-.02 0-.03-.01 0-.02 0-.03 0z"/><path d="m121.03 204.06h.03c0-.01 0-.02 0-.03z"/><path d="m193.99 97.98c.01 0 .02.01.03.01 0-.01 0-.03 0-.04z"/><path d="m104.95 217.02h.03c0-.01 0-.02 0-.03z"/><path d="m140.97 216.02c-.01 0-.02 0-.03 0v.03z"/><path d="m138.09 192.02c-.01 0-.02 0-.03-.01v.04z"/><path d="m92.9 168.11h.03c0-.01 0-.02 0-.04.01 0-.03.04-.03.04z"/><path d="m84.1 214.1c-.01 0-.02 0-.03 0 0 .01 0 .02-.01.03h.04s0-.02 0-.03z"/><path d="m115.06 202.13c0-.01 0-.02 0-.03-.01 0-.02 0-.03 0z"/><path d="m146.94 221.09h.04c0-.01 0-.02 0-.03-.01 0-.02 0-.04 0z"/><path d="m86.99 55.56s-.01-.01-.01-.01c0 .04 0 .03.01.01z"/><path d="m128.98 92.93c0-.01 0-.02 0-.03-.01 0-.02 0-.03 0z"/><path d="m54.06 164.91v.03h.03z"/><path d="m196.15 76.14h.03c0-.01 0-.02 0-.03z"/><path d="m208.12 116v5.99c-.45-.04-.78-.08-1.19-.12 0-3.28 0-6.47 0-9.2-.88-1.07-1.52-1.84-2.2-2.67-.41 0-.92 0-1.36 0-.52.67-.98 1.28-1.5 1.95-.52.37-1.09.79-1.82 1.31 0-.96 0-1.59 0-2.26 1.64.04.51-1.37 1.19-2.04h1.84c.03-.68.06-1.23.09-1.78.08.04.15.08.22.12.33-.38.66-.75 1.05-1.21h1.21c.52-.76.94-1.36 1.49-2.17-1.82 0-3.35 0-4.84 0-.31 1.15-.36 1.16-2.21.89 0-.58 0-1.15 0-1.41.46-.48.95-.76.97-1.06.06-1.31-.02-2.63-.04-3.94-.03-2.92-.06-5.84-.07-8.76-.01-2.83.26-5.68-.44-8.47-.02-.08-.04-.16-.06-.25-.07-.07-.14-.13-.21-.2.07-.01.14-.02.21-.04-.01-.07-.01-.15-.02-.22-.14-.2-.41-.4-.41-.61-.04-1.23.03-2.46-.04-3.69-.1-1.84-1.27-3.46-1.11-5.36.01-.07-.04-.19-.09-.21-.93-.45-.69-1.3-.7-2.05-.01-.77 0-1.54 0-2.31-.34-.03-.62-.06-.97-.1 0-.64 0-1.27 0-1.96-.35.02-.63.03-.89.04 0-.75 0-1.44 0-2.19-.37-.03-.79-.06-1.19-.09-.09-1.32-.18-2.54-.27-3.74-.26-.05-.51-.11-.74-.16-.04-.71-.07-1.32-.11-1.9-1.63-.01-.48-1.42-1.19-1.91-.32-.34-.55-.71-.64-1.11-.16-.71.02-1.66-.39-2.11-.78-.86-2.01-1.34-1.56-2.84-.44-.08-.81-.15-1.21-.23.03-.62.06-1.16.09-1.75-.29-.03-.63-.06-1.03-.1 0-.5.03-.94-.01-1.37-.02-.24-.09-.56-.25-.69-.77-.64-1.83-1.01-1.67-2.36.02-.21-.88-.55-.85-.73.21-1.07-.57-.69-.98-.71 0-.77 0-1.47 0-2.16-.07.08-.14.15-.21.23-.67-.52-1.47-.94-1.98-1.59-.53-.68-1.75-1.17-1.07-2.18-.64-.66-1.14-1.17-1.63-1.7-.49-.52-.96-1.06-1.62-1.78-.01 0-.36-.04-.49-.05-.6-.73-1.07-1.31-1.59-1.95-.42.02-.95.04-1.48.07-.14-2.11-.14-2.11-1.81-2.2-.19-.31-.33-.67-.58-.9-.33-.29-.74-.48-1.12-.71.04-.08.07-.16.11-.24-.55-.03-1.1-.05-1.35-.07-.98-1.04-1.79-1.89-2.74-2.89-.42 0-1.05 0-1.32 0-.62-.85-1.08-1.46-1.57-2.12-.51 0-1.03 0-1.56 0-.12-.34-.23-.65-.35-.98-.95 0-1.91.22-2.68-.07-.63-.24-1.02-1.1-1.64-1.83-.29 0-.8 0-1.32 0-.31-.5-.73-.93-1.13-.91-.95.05-1.27-.29-.99-1.25-1.06 0-2.01 0-2.98 0-.09-.35-.16-.64-.24-.95-.58 0-1.09 0-1.61 0 .03-.12.07-.24.1-.37-.46-.2-.9-.52-1.37-.56-1-.12-2.03-.06-3.05-.06-.03-.38-.05-.66-.08-.97-1.92 0-3.8 0-5.75 0-.05-.32-.1-.6-.13-.77-.62-.06-1.16-.17-1.69-.17-2.68-.02-5.36.01-8.04-.02-.58-.01-1.16-.17-1.74-.27l-.1.03h-.11c0-.08-.01-.17-.01-.25-.08.02-.17.04-.25.06-.3-.04-.6-.07-.9-.13-.19-.04-.38-.11-.55-.2-.81-.42-1.28.47-1.95.51-1.98.11-3.96.22-5.94.25-2.37.04-4.73-.01-7.1.03-.37.01-.73.27-1.09.42-.08.02-.17.04-.25.06-.07.07-.13.14-.2.21 0-.07-.01-.14-.01-.22.07-.01.14-.02.21-.03 0-.07-.01-.14-.01-.22-.06-.01-.12-.01-.18 0-.01.07-.03.14-.04.21-.07 0-.14 0-.22 0-.01-.07-.03-.14-.04-.21-.07.07-.13.13-.2.2.07.01.14.03.21.04 0 .07-.01.15-.01.22h-.11s-.1-.03-.1-.03c-1.8.14-3.6.28-5.38.42-.02.26-.05.53-.07.85-1.45 0-2.84 0-4.22 0-.03.33-.06.61-.09.93-1.26 0-2.49 0-3.74 0v.91c-1.16.18-2.58-.44-3.13 1.17-1.16-.2-2.06.38-3.05.88-.93.47-2.18.06-3.05 1.03-.24.26-.88.14-.84.83 0 .09-.55.2-.84.3-.62.21-1.23.43-1.86.63-.34.11-.7.15-1.03.27-.35.12-.73.24-.99.47-.48.42-.89.92-1.33 1.39.06.08.12.16.19.24-.31.02-.62.05-.94.07-.07.31-.14.61-.22.93-.58 0-1.09 0-1.62 0-.05.34-.09.64-.09.61-1.26.54-2.3.99-3.31 1.42-.02.29-.04.54-.05.59-.87.5-1.63.94-2.44 1.4.11.58.04 1.15-.78 1.29-.08.06-.15.11-.23.17-.01.08-.01.15-.01.23-1.07.76-2.13 1.52-3.33 2.37 0 .04.04.32.05.41-.69.57-1.23 1.01-1.95 1.61.01.08.04.48.07.92-.49 0-.92 0-1.39 0-.04.34-.07.64-.1.95-.31.01-.59.03-.88.04-.02.29-.04.58-.06.88-.33.05-.66.09-.92.13.02.33.04.58.06.85-.4.03-.71.05-1.01.08-.03.33-.05.61-.08.89-.32.03-.63.05-.99.08.66 1.3-.58.71-.85.96.18 1.1-.42 1.62-1.18 2.13-.39.26-.61.79-.86 1.22-.09.16-.01.54-.09.57-1.22.42-.57 2.16-1.84 2.57-.28.09-.44.58-.66.88-.23.48-.17 1.19-.48 1.62-.41.56-1.15.88-1.69 1.37-.2.18-.23.55-.31.84-.07.26-.1.53-.18.79-.25.73-.5 1.46-.79 2.18-.17.43-.4.84-.61 1.26-.12-.05-.24-.09-.36-.14v1.8c-.33.02-.62.03-.89.05-.1 2.49-1.04 4.72-1.94 6.97-.05.79.3 1.68-.71 2.27-.1.06-.02.44-.03.67v.3c-.34 1.55-.79 3.08-1 4.64-.26 1.99-.29 4-.47 6-.04.45-.28.89-.42 1.33-.01.08-.02.15-.02.23.07.01.14.02.21.04-.07.07-.14.14-.2.2-.01-.06-.02-.13-.03-.19-.06.07-.13.13-.19.2-.09 2.03-.17 4.05-.29 6.08-.04.68-.4 1.39-.27 2.01.32 1.43.27 2.79-.18 4.17l-.03-.03v.06c.01-.01.02-.02.03-.03.07.07.14.13.21.2-.07.01-.14.03-.21.04.01.07.01.15.02.22.07.78.16 1.56.19 2.34.02.41-.14.83-.12 1.24.16 2.95.35 5.9.53 8.84-.18.07-.36.13-.53.2-.29-.37-.59-.73-.97-1.21-.64.05-1.62.58-2.01-.68-.01-.03-.13-.05-.19-.05-1.18 0-2.36 0-3.58 0 .4 1.05.32 1.13-.71 1.02-.36.6.38 1.75-1.02 1.86-.06.95-.13 1.93-.19 2.97-.28.03-.61.06-.88.09 0 .75.07 1.45-.02 2.12-.12.89-.37 1.75-.57 2.63-.03.07-.04.14-.03.21.07.02.15.04.22.05-.07.08-.15.16-.22.24-.02.31-.03.62-.05.94.02.08.04.17.06.25.07.07.14.13.21.2-.07 0-.15.01-.22.01-.01-.07-.02-.14-.03-.21h.03c-.02-.08-.04-.17-.06-.25-.06.09-.13.18-.19.26-.01.06-.01.12 0 .18.07.01.14.03.22.04.01.07.02.14.03.21.07.01.14.03.21.05-.07.08-.15.16-.22.24-.6 2.29-.51 4.61-.21 6.93.08 0 .15.01.23.01.07.07.14.14.2.2-.07.01-.14.02-.21.04.01.07.02.15.02.22.67.43.59 1.07.53 1.74-.07.83-.05 1.67.85 1.72.64 1.48 1.38 2.74 1.47 4.2.08.09.17.17.25.26.06.08.12.16.18.25.5 1.11 1.5 1.99 1.49 3.33.08.09.17.17.25.26.06.08.12.16.18.25.11.77.22 1.54.34 2.38.16.01.47.03.74.05.08.98.16 1.9.24 2.83.46.02.86.04 1.24.06-.04.27-.11.49-.11.72-.01 3.16-.02 6.32.02 9.49.01.52.21 1.04.38 1.54.19.56.71 1.15.63 1.65-.32 1.87 1.12 3.04 1.63 4.57.09.28.31.77.43.76 1.2-.12.76.82.91 1.4.78 0 1.56-.11 2.29.02 1.39.24 1.64-1.14 2.5-1.62.15-.08.22-.41.33-.41.23 0 .48.1.67.23.28.19.52.45.95.83v1.05c-.33.02-.61.05-.91.07.04.6.07 1.15.11 1.69.31.06.57.1.86.16 0 1.37 0 2.68.01 3.99 0 .15.05.38.15.42 2.01.92.6 2.8 1.44 4.24.54.11.53.65.66 1.4.17.99-.79 2.4.84 3.02.09.03.01.48.05.73.09.64-.01 1.52.36 1.85.73.64.51 1.34.59 2.05.08.7.18 1.41.36 2.09.09.32.5.56.56.88.13.73.14 1.49.2 2.25.29.02.6.05.87.07v1.85c.35.03.68.05 1.01.07-.36 1.54 1.54 2.35 1.09 3.85-.01.02.03.07.06.08 1.11.38 1.52 1.39 2.07 2.28.39.64.77 1.28 1.16 1.92.02.08.04.17.06.25l-.03-.03v.04h.03c.06.08.13.15.19.23.13.78.27 1.57.37 2.21.71.12 1.35.22 2.03.33.07.56.14 1.15.19 1.59.66.5 1.24.94 1.88 1.43-.03.25-.07.62-.08.74.74.51 1.4.87 1.95 1.36.94.85 1.82 1.78 2.7 2.69.22.23.38.79.51.78 1.36-.15.78.72.71 1.31.54.09 1.43-.19.88.94.37.04.72.07 1.12.11-.03.33-.05.6-.05.67.66.25 1.21.46 1.75.67l.12.03.12-.03.11.03h.11c0-.4 0-.8 0-1.2-.89-.26-.89-.26-.95-1.76-2.25-2.22-4.28-4.23-6.31-6.24.05-.05.1-.1.16-.15-.62-.46-1.24-.92-1.98-1.48 0-.4 0-.95 0-1.14-.79-.83-1.36-1.43-1.94-2.04-.57-.6-1.13-1.2-1.89-2.01 0-.23 0-.78 0-1.18-.53-.35-.93-.61-1.34-.88.06-.12.12-.25.19-.37.66-.03 1.33-.06 2.37-.11-.6-.71-1.02-1.22-1.63-1.94-.51.36-1.09.76-1.71 1.2-.14-.52-.2-1.05-.3-1.06-1.09-.07-.74-.84-.75-1.44-.01-.52 0-1.03 0-1.43-.64-.54-1.21-1.02-1.89-1.59 0-.77 0-1.69 0-2.59-1.81-.52-.68-2-1.07-3.03-.31-.04-.65-.08-1.07-.12 0-.98 0-1.93 0-2.88-.13.03-.27.06-.4.1-.2-.46-.48-.9-.56-1.37-.1-.58.04-1.2-.04-1.79-.05-.39-.31-.76-.47-1.13-.15.03-.29.05-.44.08 0-1.59 0-3.18 0-4.76-.13.03-.27.06-.4.09-.19-.46-.49-.9-.56-1.37-.1-.65-.04-1.33-.04-2-.27-.02-.54-.03-.94-.06 0-1.59 0-3.18 0-4.76 0-1.06 0-1.06-.96-1.41 0-1.45 0-2.93 0-4.48-.37-.06-.71-.11-1.11-.18-.03-.25-.08-.51-.08-.78 0-6.04-.01-12.07.01-18.11 0-.71.05-1.36-.97-1.29 0-1.98 0-3.85 0-5.73-.12.03-.24.07-.37.1-.2-.46-.53-.9-.57-1.37-.09-1.03.02-2.08-.05-3.11-.02-.35-.34-.68-.52-1.03-.13.03-.25.06-.38.09 0-1.19 0-2.38 0-3.56-.13.03-.27.07-.4.1-.2-.46-.54-.9-.56-1.37-.08-1.31.01-2.64-.05-3.95-.02-.41-.32-.8-.49-1.2-.14.05-.28.1-.42.15 0-1.27 0-2.54 0-3.88-.41-.06-.74-.11-1.15-.18 0-.89 0-1.78 0-2.77.35-.03.69-.06 1.07-.09 0-.37 0-.68 0-.88-.44-.29-.85-.55-1.26-.81.06-.12.12-.24.18-.36.34-.04.68-.08 1.07-.12 0-.59 0-1.14 0-1.77-.32-.05-.66-.1-1.07-.17 0-3.93 0-7.86 0-11.88.35-.03.69-.06 1.07-.1 0-1.01 0-1.95 0-2.98-.33-.05-.67-.11-1.07-.17 0-1.17 0-2.36 0-3.64.31-.06.67-.14 1.13-.24 0-1.91-.04-3.83.03-5.73.01-.46.35-.91.54-1.37l.39.09c0-2.03-.03-4.07.02-6.1.01-.39.33-.77.51-1.15.12.03.24.07.36.1 0-1.18 0-2.36 0-3.63.25-.04.58-.1.98-.16 0-.62 0-1.25 0-1.88.13.04.25.07.38.11.21-.46.51-.9.6-1.38.1-.54-.05-1.13.05-1.67.08-.47.36-.92.55-1.37.12.03.25.06.37.09 0-.91 0-1.83 0-2.82.4-.08.76-.15 1.18-.23 0-.54 0-1.05 0-1.63.34-.12.64-.23 1.02-.37 0-.55 0-1.09 0-1.72h1.82c-.01-.56.47-1.16-.54-1.27-.13-.01-.36-.63-.29-.7.56-.5 1.17-.93 1.85-1.44 0-.42 0-.94 0-1.53 1.67-.07.7-1.4 1.22-1.94 1.21-1.15 2.42-2.29 3.81-3.61 0-.27 0-.82 0-1.47.35-.03.65-.06.94-.09.21.41.41.82.62 1.22.12-.04.23-.07.35-.11v5.72c-.86.09-.86.09-.97-1.92-.24-.01-.63-.13-.72-.02-.43.56-.78 1.18-1.16 1.78-.06.09-.11.2-.19.28-.24.22-.5.42-.75.62.29.19.59.38.92.59v1.93c-.44-.38-.69-.59-.94-.8-.16-.13-.31-.32-.48-.36-.13-.03-.32.13-.45.25-.33.31-.64.64-1.18 1.18.19.15.55.42 1.08.83v4.61c-.66 0-1.29 0-2.04 0 0-.56 0-1.13 0-1.71-.1-.08-.21-.16-.31-.24-.49.41-.98.82-1.63 1.36v1.34c-.13-.03-.26-.06-.39-.09-.2.53-.52 1.05-.58 1.6-.1.87-.03 1.75-.03 2.56-.68.52-1.28.98-2.11 1.62v1.57c-.13-.04-.26-.07-.39-.11-.21.46-.5.9-.6 1.38-.1.54.05 1.13-.05 1.67-.08.48-.36.92-.55 1.37-.12-.03-.23-.06-.35-.09v3.7c.11-.03.21-.07.32-.1.2.46.54.9.58 1.38.09.95-.03 1.92.05 2.87.04.47.36.92.56 1.37.1-.03.21-.06.31-.09v3.61c-.61 0-1.15 0-1.86 0 0-1.35.03-2.69-.03-4.03-.01-.28-.37-.54-.56-.81-.11.07-.23.13-.34.2v5.72c-.14-.03-.27-.06-.4-.09-.19.46-.53.91-.55 1.37-.07 1.59-.03 3.18-.03 4.83h1.37c1.2-1.23 2.23-2.3 3.27-3.36.12.09.23.17.35.26.03-.58.06-1.16.1-1.82.59-.03 1.14-.06 1.87-.1 0-.65-.07-1.32.02-1.97.07-.47.36-.92.55-1.37.12.03.25.06.37.1 0-.52 0-1.03 0-1.39 1.03-.92 1.95-1.75 2.87-2.57.07.06.15.12.22.18.03-.34.06-.68.09-1.06h1.43c.56-.57.99-.99 1.4-1.43.41-.43.8-.89 1.32-1.47h1.44c.92-1.03 1.74-1.95 2.57-2.87-.06-.08-.12-.16-.18-.24h1.45c.6-.68 1.06-1.21 1.68-1.92h1.42c.61-.69 1.07-1.21 1.68-1.89h1.38c.19.3.38.6.56.9.21-.25.37-.59.64-.72.58-.27 1.2-.37 1.43-1.15.11-.36.62-.6.95-.9-.06-.1-.13-.2-.19-.3h2.42c1.19-1.86 2.92-.5 4.36-1.2.04-.11.14-.42.26-.75h1.71c0-.62 0-1.19 0-1.85.3-.03.56-.13.65-.05.55.52 1.05 1.09 1.6 1.61.16.15.59.31.66.24.51-.54.96-1.14 1.55-1.87h2.53c0-1.05 0-2.03 0-3.06h1.21v2.97h2.85c0-.64 0-1.26 0-1.88.09-.09.19-.17.28-.26.24.22.6.39.7.67.23.61 1.47 1.52 2.17 1.42 0-.61 0-1.24 0-1.95h2.77c.06.3.14.66.3 1.42.58-.66.98-1.12 1.39-1.59.11.05.21.11.32.16v2.81c.46.22.87.36 1.22.6.26.18.42.48.63.73.1-.07.2-.13.3-.2.03-.55.06-1.1.07-1.32.44-.55.66-.95.99-1.2.2-.16.58-.09.87-.12-.03.58.36.64.79.9.6.36.93 1.15 1.41 1.8h1.72c.47-1.84 2.04-.44 3.06-1.15 0-2.13 0-4.39 0-7.01.81.6 1.36 1.01 2.12 1.57v2.42c-.31.06-.68.14-1.08.22v1.98c.35.05.68.1 1.14.16v2.74h1.86c-.12-.73.69-1.74-.84-1.97 0-1.9 0-3.81 0-5.81h1.81v7.39c.52.48.89.82 1.5 1.39h1.34c.37.57.65 1.01.94 1.45.1-.05.2-.09.3-.14v1.46c-.4.38-.72.68-1.03.98.07.09.13.18.2.28h1.65c.45-1.8 1.94-.39 2.49-.82.64.39 1.08.61 1.46.91.37.28.72.61 1.01.96.52.62.99 1.28 1.62 2.11h4.6c.21.42.42.84.64 1.26.14-.04.28-.08.43-.12-.48 1.25.78 2.87-.98 4v1.65c.11-.03.22-.07.33-.1.2.46.55.91.58 1.37.08 1.27.08 2.56 0 3.83-.03.47-.36.91-.56 1.37-.12-.03-.23-.06-.35-.09v3.22c.66.73 1.18 1.31 1.84 2.04v4.3c-1.09.37-.9-.39-.91-.95s0-1.11 0-1.51c-.65-.54-1.15-.96-1.9-1.58v1.84c-.61.44-1.07.78-1.52 1.11.04.07.08.14.12.21-.52 0-1.03 0-1.67 0-.04-.58-.08-1.15-.12-1.84-.57-.03-1.15-.07-1.81-.1-.03-.58-.06-1.12-.1-1.75-1.62-.07-.65-1.4-1.06-2.26-.62 0-1.31 0-2.01 0v1.81c.37.34.71.64 1.05.95-.07.09-.13.19-.2.28-.55 0-1.1 0-1.72 0-.06-.26-.13-.55-.22-.91-.58 0-1.13 0-1.67 0 .07-.09.14-.19.21-.28-.71-.72-1.41-1.45-2.12-2.17-.1.08-.21.16-.31.24 0-.55 0-1.09 0-1.74.3-.06.66-.14 1.08-.23 0-1.27 0-2.54 0-3.79-1.23-.96-1.01 1.33-2.08.73v3.05c-.35.08-.63.15-.99.23.2.71-.57 1.76.94 1.9v2.77c.72.69 2.24-.55 2.31 1.2h2.65c-.02 1.55 1.2.76 2.05 1.11v1.76h4.63c.6.81 1.06 1.42 1.56 2.09.86.66 2.51-.9 3.11 1.07h1.69v1.82h3.92c.12.38.23.69.34 1.03h1.66c.06.37.12.71.19 1.17h2.02c.03.66.06 1.21.1 1.89h2.78c-.01.75.13 1.33.99 1.03v1.41c-.5.6-.84 1-1.39 1.65-.87 0-2.14 0-3.38 0-.67 1.86-2.15.73-3.23.97-.32.07-.75-.38-1.14-.6.04-.1.07-.21.11-.31-.91 0-1.83 0-2.77 0-.14-.42-.16-.92-.42-1.16-1.79-1.69-3.63-3.33-5.7-5.21v2.16c1.41.01.72 1.18.98 1.97.32.04.66.09 1.08.15v2.94c1.5-.02.87 1.08 1.04 1.78.59.44 1.24.84 1.76 1.37.1.1-.33.71-.51 1.08-.16.01-.32.02-.48.03.28.38.55.76.83 1.14.08-.05.16-.1.24-.15v3.42c-.36.33-.63.57-.91.82.26.22.52.43.94.79v2.7h2.18c-.53-.64-.91-1.1-1.5-1.81h2.4c.04-.44.08-.78.11-1.17h4.66c.05.32.1.66.15.98 1.3.67 3.07-.59 4.52 1.1h3.15c.97 1.03 1.78 1.89 2.69 2.85.48-.15 1.55.65 1.68-.88h3.86c.09-1.55 1.21-.83 1.94-.98.58-.12 1.55.43 1.31-.94h1.71c.6-1.87 2-.55 3.05-1.1v1.93c.41.07.75.12 1.08.17.56.54-.6 1.96 1.09 1.92v1.93c.14-.03.27-.06.41-.1.19.46.48.9.56 1.37.1.58-.04 1.2.04 1.79.06.39.32.76.49 1.13.14-.03.29-.05.43-.08v4.77c.14-.03.27-.06.41-.09.19.46.53.91.54 1.37.05 2.68 0 5.36.05 8.04.01.39.33.77.73 1.12-.22.89 1.09 2.29-.74 2.87v3.69c-.12-.03-.24-.07-.36-.1-.2.46-.54.9-.58 1.38-.09.95.03 1.92-.05 2.87-.04.47-.36.92-.56 1.37-.12-.03-.25-.07-.37-.1v1.53c-1.88.57-.49 2.12-.93 2.84-1.57 1.45-2.99 2.76-4.41 4.08.05.07.11.15.16.22-.51 0-1.03 0-1.61 0-.11.34-.21.65-.32.99-.64 0-1.23 0-1.9 0-.06.37-.12.71-.19 1.13-.52 0-1.07 0-1.58 0-.48 1.15-.47 1.14-1.29.23-.11-.12-.45-.2-.52-.13-.22.21-.37.51-.61.88-2.79 0-5.74 0-8.5 0-.44-.45-.8-.82-1.29-1.32-.14-1.65-.14-1.65-.99-1.88 0-.84 0-1.71 0-2.58-.12.04-.23.07-.35.11-.21-.38-.6-.76-.6-1.15-.05-3-.03-6-.03-9 .11.04.23.07.34.11.21-.46.58-.91.59-1.38.07-1.92.06-3.84 0-5.76-.02-.46-.36-.91-.55-1.37-.12.03-.25.06-.37.09 0-1.23 0-2.47 0-3.79-1.49-.01-.79-1.19-1.05-1.97-.32-.04-.66-.09-1.08-.14 0-.64 0-1.27 0-1.6-1.19-1.18-2.19-2.17-3.19-3.16-.46-.5-1.71.44-1.71-1.17-.66 0-1.29 0-1.93 0s-1.27 0-1.98 0c-.07.33-.14.61-.22.97-.59 0-1.13 0-1.76 0-.03.62-.06 1.17-.08 1.57-.54.37-1 .7-1.46 1.02.04.1.09.2.13.3-.55 0-1.09 0-1.73 0v3c-1.37 0-.95.96-.99 1.68-.04.62.29 1.46-.96 1.36v1.94 1.99c-.33.07-.62.13-.91.2v1.76h1.71c.72-.84-.76-2.51 1.11-2.99 0-.52 0-1.03 0-1.63 1.6-.07.76-1.29 1.05-2.14.22-.08.53-.19.87-.31 0-.53 0-1.04 0-1.37.78-.58 1.43-1.06 2.2-1.63 0-.52 0-1.14 0-1.85h1.78c.08-.36.15-.64.23-1 .71.23 1.8-.61 1.89.96h1.91c-.06.09-.12.17-.18.26 1.01 1.06 2.02 2.13 3.22 3.39v1.2c1.86.6.48 2.2 1.16 3.28.22.03.56.07.95.11v3.67c-.34.06-.7.13-1.09.2v11.85c.37.03.71.06 1.13.1v4.88c.36.08.64.14.94.2v1.93c-1.21.52-.79-.57-.9-.81-1.1-.82-2.75.73-3.33-1.21-.5 0-1.02 0-1.6 0-.08-.32-.15-.6-.21-.82-1.05-.62-2.62.71-3.25-1.11-.82 0-1.65 0-2.56 0-.08-.32-.14-.61-.23-.96-.66 0-1.28 0-1.98 0 0-.7 0-1.33 0-1.74.84-.72 1.6-1.38 2.36-2.03-.06-.09-.12-.17-.18-.26.55-.03 1.1-.05 1.41-.07.79-.8 1.45-1.47 2.1-2.15.07.05.15.1.22.14 0-.63 0-1.26 0-1.95.4-.06.74-.12 1.17-.18 0-.85 0-1.72 0-2.59.13.04.26.07.39.11.21-.46.55-.9.59-1.38.09-.94.03-1.91.03-2.94-.72 0-1.38 0-2.12 0v4.6c-.72.6-1.28 1.08-1.95 1.64v1.78c-.94 0-1.83 0-2.73 0 .03.09.05.17.08.26-.55.49-1.1.99-1.86 1.67-.55 0-1.42 0-2.29 0 .03-.11.06-.23.09-.34-.46-.19-.9-.43-1.37-.55-.34-.09-.73.05-1.07-.03-.39-.1-.76-.33-1.13-.5.03-.14.05-.28.08-.43-.87 0-1.74 0-2.67 0-.06-.41-.11-.75-.16-1.15-.95 0-1.9 0-2.93 0-.06.32-.13.69-.22 1.13-1.62 0-3.22-.04-4.81.03-.47.02-.92.37-1.37.57.03.12.07.24.1.37-1.15 0-2.31 0-3.52 0-.12 1.57-1.33.73-2.16 1.05-.07.22-.17.53-.28.87-.56 0-1.08 0-1.7 0v1.43c-.71.76-1.25 1.33-1.95 2.08v5.38c.34.23.62.42.91.62-.22.19-.43.39-.65.58-.08.07-.19.12-.26.2-.22.24-.42.49-.63.74-.19-.3-.37-.59-.58-.93-.56 0-1.15 0-1.54 0-.47.48-.82.84-1.35 1.38v3.23c-1.36 1.28-2.59 2.45-3.83 3.63-.08-.07-.16-.14-.24-.2v1.24c-.53.64-.89 1.08-1.42 1.73-.23 0-.78 0-1.24 0-.66.61.49 2.03-1.18 2v1.74c-.35.08-.64.15-1 .24v1.98c-.39 0-.69 0-1.08 0-.06-.32-.13-.7-.21-1.11-.28 0-.54 0-.8 0-.03-.58-.05-1.17-.08-1.67.69-.53 1.3-1 2.14-1.64.01-.22.04-.77.07-1.39 1.55-.07.7-1.3.92-1.91.96-.9 1.85-1.72 2.86-2.67 0-.3 0-.81 0-1.05.51-.56.86-.96 1.22-1.35-.07-.08-.13-.16-.2-.24.34-.05.68-.11 1.11-.17 0-.85 0-1.72 0-2.67 1.51-.02.85-1.18 1.08-1.95.28-.06.56-.13.88-.2 0-.66 0-1.25 0-1.94 1.46.02.84-1.07.99-1.71.4-.35.77-.67 1.14-1-.04-.08-.07-.17-.11-.25h1.98c0-.73 0-1.38 0-1.95-.43-.25-.83-.49-1.24-.72.05-.12.1-.24.15-.35.37-.07.73-.14 1.02-.2.65-.95-.73-2.5 1.11-3 0-.58 0-1.18 0-1.86 1.46.02.84-1.07.99-1.73.6-.51 1.16-.99 1.89-1.6 0-.33 0-.88 0-1.46.35-.08.64-.15.96-.22 0-.66 0-1.26 0-1.69.56-.39 1.03-.7 1.49-1.02-.04-.08-.09-.17-.13-.25h2.69v2.86c.97.22.97.22 1.02-1.6.35-.32.64-.6.93-.88-.27-.21-.54-.42-.95-.74 0-.09 0-.36 0-.64 0-.24 0-.48 0-.63-.43-.38-.8-.71-1.42-1.25-.91 0-2.18 0-3.53 0-.06.28-.12.56-.19.92-.6 0-1.14 0-1.77 0-.03.62-.05 1.17-.07 1.59-.65.55-1.22 1.02-1.89 1.59v2.53c-.69.53-1.3 1-2.12 1.63v2.37c-1.71.08-.73 1.4-1.11 2.2-.24.06-.53.12-.85.2v1.59c-.95.35-.95.35-.99 1.65-.48.57-.84 1.01-1.39 1.66-.29 0-.91 0-1.54 0 .03.14.06.27.1.41-.46.19-.9.52-1.37.55-1.19.08-2.38.03-3.64.03v1.72c.29.18.59.36.88.55-.24.21-.5.41-.72.65-.12.13-.26.42-.2.48.23.25.52.44.89.73v4.06c-.53-.44-.83-.7-1.14-.96.04-.09.08-.17.12-.26-.37.02-.75.04-1.12.06v3.87c.4.08.77.16 1.17.25v1.78c-.98 0-1.95 0-3 0v1.69c.3.24.59.48.88.72-.27.24-.55.49-.96.86v3.08c-.71-.6-1.17-.98-1.85-1.54v3.94c-.68.19-1.41.34-.96 1.32-.48 0-.79 0-1.17 0-.05-.33-.1-.66-.18-1.13-.27 0-.56 0-.85 0v1.97c.28.1.59.21.91.33v1.38c-.95.9-1.8 1.71-2.83 2.69v1.71c-.65.04-1.22.07-1.89.11v2.69c-.44.09-.8.16-1.24.25v5.82c-.65.04-1.23.08-1.87.13v2.78c.61.51 1.17.99 1.83 1.53v4.41c-.4.34-.73.63-1.07.91.06.11.12.21.18.32h1.71c.44.5.77.87 1.11 1.25.08-.04.16-.08.24-.12v1.7c.35.08.64.15.95.22.02.39.03.74.05 1.08h1.87c-.4 1.09 1.37.85 1.02 1.92h1.69c.54-.53.9-.88 1.41-1.38 0-.35 0-.94 0-1.29.5-.49.86-.85 1.4-1.37h4.43c.11-.34.21-.65.31-.99h1.66c.08-.31.14-.6.22-.93h1.88c.11-.34.21-.65.32-.99h1.65c.08-.31.15-.6.23-.96h1.43c.6-.79 1.06-1.41 1.62-2.15h1.82c.04-.65.08-1.23.12-1.88.58-.03 1.13-.06 1.45-.07.81-.81 1.49-1.5 2.34-2.35 0-.33 0-.92 0-1.22.92-.8 1.68-1.45 2.43-2.1-.06-.08-.12-.17-.18-.25h2.63c.49.84-.06.99-.77.94v3.07c.27.02.54.03.88.05v2.53c.74.55 1.39 1.04 2.17 1.62v4.41c-.49.3-.89.54-1.28.78.05.12.1.23.15.35.37.07.74.14 1.14.21v1.74c-.73.52-1.32.93-2.09 1.48 0-1.86 0-3.42 0-5.04-.19-.07-.38-.09-.51-.19-.18-.14-.38-.32-.44-.52-.03-.1.25-.29.39-.43.17-.16.35-.31.52-.46-.16-.17-.33-.33-.47-.51-.17-.2-.31-.43-.48-.63-.21-.24-.43-.46-.65-.68-.1.07-.19.15-.29.22v1.86c-1.82.53-.57 1.94-1.05 2.82 1.9.69.63 2.17 1.14 3.3-.75.05-1.33.09-1.99.13v3.69c-1.06 0-2.03 0-3.19 0 0-1.22 0-2.47 0-3.72-.5-.04-.91-.11-1.02.68-.05.38-.75.66-1.05 1.24-.66 0-1.31 0-1.97 0v3.03c-.63 0-1.17 0-1.67 0-.5 1.19-.46 1.15-1.29.24-.51-.56-1.19-.96-1.73-1.49-.16-.16-.15-.5-.23-.83-.63 0-1.26 0-1.89 0 .03-.12.06-.24.1-.37-.4-.19-.8-.38-1.2-.58v2.86c.35.22.64.41.93.6-.25.2-.56.37-.73.62-.18.27-.22.63-.4 1.19-.7-.69-1.36-1.35-2.22-2.2-.62 0-1.57 0-2.59 0-.03-.41-.06-.74-.1-1.15-.6 0-1.14 0-1.75 0-.08-.35-.15-.64-.24-1.02-.61 0-1.2 0-1.79 0-.01-.27-.03-.54-.04-.86-.36-.04-.7-.09-1.13-.14-.02-.3-.04-.59-.06-.88-.58 0-1.16 0-1.87 0 .4-1.09-1.38-.85-1.02-1.92-.66 0-1.32 0-1.98 0 .03-.41.05-.75.05-.79-.8-.58-1.38-1.01-2.11-1.55-.01-.11-.05-.41-.1-.85-.72.1-1.39.2-2.05.3-.08.2-.17.4-.18.42.67.32 1.42.46 1.78.91.46.58.59 1.41 1.5 1.56.08.01.17.14.2.24.3.77 1.1 1.5 1.8 1.67.51.13 1.08.22 1.49.52.73.54 1.36 1.21 2.03 1.83l.1.03h.11c.02-.07.04-.15.05-.22.08.07.16.15.24.22.23.07.47.14.7.21.28.45.57.89.7 1.1.83.38 1.53.7 2.23 1.01.7.32 1.39.68 2.12.93.7.24 1.44.35 2.23.54.02.16.07.46.07.46.95.37 1.68.84 2.45.93 1.96.25 3.73 1.14 5.64 1.56.36.08.67.34 1.02.48 1.05.45 2.08 1.01 3.18 1.3 1.1.28 2.27.28 3.41.41.07.06.15.12.22.19v.03h.04l-.03-.03c.08.02.17.04.25.06 1.56.16 3.13.34 4.69.48 1.79.16 3.58.3 5.37.45.06.05.12.11.18.16.02-.06.03-.11.05-.17.64-.6 1.29-.72 1.96-.04.08.01.15.01.23.02.01-.07.02-.14.04-.21.07.07.13.14.2.21.08.02.17.04.25.06.37-.03.75-.06 1.12-.09 1.54-.15 3.08-.34 4.62-.42.82-.04 1.69.27 2.16-.77.07-.15.49-.19.75-.18.68.02 1.37.2 2.02.1.57-.09 1.1-.49 1.64-.75-.03-.13-.07-.25-.1-.38h2.59c.06-.37.12-.74.18-1.14h1.66c.11-.34.22-.65.32-.96h2.75c.05-1.5 1.22-.77 1.95-1.01.03-.26.05-.55.09-.87.33-.03.66-.06 1.02-.1 0-.35 0-.62 0-.89-.27-.01-.54-.03-.91-.05 0-.66 0-1.32 0-2.05-.68 0-1.25 0-1.91 0v1.89c-.09.09-.18.17-.27.26-.25-.22-.49-.43-.74-.64-.15-.13-.32-.35-.48-.35s-.31.23-.47.36c-.31.24-.62.48-1.18.91 0-1.39 0-2.33 0-3.34-.35-.08-.63-.15-.95-.22 0-.59 0-1.13 0-1.77.32-.02.61-.05.9-.07.01-.67.08-1.35-.01-2-.07-.47-.36-.92-.56-1.37-.14.03-.27.07-.41.1 0-.55 0-1.09 0-1.69-.95 0-1.82 0-2.68 0-.09.08-.17.17-.26.25.59.62 1.19 1.25 1.97 2.08v5.45c-.57 0-1.11 0-1.76 0-.23-.32.05-1.34-1.03-.83 0-.68 0-1.19 0-1.72 1.73-.71.57-2.16.95-3.23-.13-.08-.26-.16-.39-.24-.28.34-.55.68-.83 1.02.06.07.12.13.17.2-.34.05-.68.1-1.09.16-.03.54-.06 1.09-.11 2.02-.69-.52-1.22-.92-1.85-1.4 0-.81 0-1.73 0-2.45-.95-.9-1.78-1.68-2.84-2.68v1.96c.61.54 1.13 1 1.82 1.61v4.52c-.87.18-.89.18-.9-.66-.01-.6.13-1.29-.91-1.09-.03-.63-.06-1.18-.09-1.82-.98 0-1.95 0-3.02 0v4.16c-.53.61-.86.99-1.1 1.26.54.51.85.81 1.17 1.11-.07.09-.13.18-.2.27-.58 0-1.16 0-1.79 0 0-3 0-5.94 0-8.97.27-.06.56-.12.86-.18 0-.61 0-1.15 0-1.78-.99 0-1.94 0-3.01 0 0-2.01 0-3.95 0-6.02-.73 0-1.34 0-1.96 0v6.91h3.07c0 .35.09.7-.01.78-.67.47-1.38.89-2.08 1.33v2.76c1.81.55.52 1.98.99 2.9-.1.09-.21.18-.31.27-.49-.41-.98-.82-1.66-1.38 0-1.37 0-2.96 0-4.36-.68-.59-1.21-1.04-1.91-1.65 0-1.98 0-4.21 0-6.11-.46-.52-.69-.87-1-1.1-.3-.23-.69-.35-1.13-.56 0-.84 0-1.79 0-2.82.33-.05.66-.1 1.07-.17 0-.85 0-1.72 0-2.69-.3-.06-.66-.14-1.07-.23 0-.95 0-1.9 0-2.94.34-.02.67-.04.86-.05.28.47.47.84.72 1.17.22.29.5.53.89.93h1.32c.48-.64.97-1.28 1.64-2.17.22.29.49.65.89 1.18h.8c0-.66 0-1.29 0-1.92l.27.12c.25-.34.44-.75.77-.99.19-.14.65-.08.88.06.31.2.51.57.82.82.48.55-.39 1.76 1.09 2.1 0-1.17 0-2.11 0-3.06.09-.08.19-.17.28-.25.33.27.67.54 1.23.99h1.35c.27-.33.5-.63.74-.92.18.23.33.51.55.69.25.2.58.3.95.48v1.92h1.85v7.88h1.18c0-3.29 0-6.56 0-10.11-.43.18-.81.28-1.12.48-.26.17-.43.46-.64.7-.1-.07-.19-.13-.29-.2-.03-.55-.06-1.1-.07-1.46-.43-.39-.75-.69-1.07-.99.06-.1.13-.2.19-.3h2.71c.33-.41.56-.71.8-1 .18.23.32.54.55.68.26.16.6.18.9.25 0-.98 0-1.96 0-3.07h2.86c0-.67 0-1.22 0-1.83.41-.07.75-.12 1.18-.19.03-.56.06-1.14.1-1.79.59-.03 1.13-.06 1.47-.07.46-.48.82-.84 1.17-1.2.57-.53-.57-1.87 1.13-1.98 0-.88 0-1.75 0-2.62.14.03.27.06.41.09.19-.46.5-.9.55-1.37.09-.91.03-1.84.03-2.83.38-.08.74-.15 1.12-.23.07-1.32.14-2.62.25-3.92 0-.03.43-.02.75-.04v2.65c1.02.97 1.88 1.78 2.88 2.73v1.63c-1.15.57-.84-.43-.96-.97-.59 0-1.13 0-1.75 0-.31.76-.18 1.25.81 1.21v1.64c-1.07.42-1.07.42-.87 2.81.61.55 1.22.97 1.66 1.53.99 1.23-1.74.63-.68 1.87-.78 0-1.29 0-1.48 0-.61.52-1.01.86-1.67 1.43v4.11c-.45.46-.73.74-1.01 1.03.28.2.57.4.96.67v1.52c.09.09.19.18.28.26.58-.42 1.15-.84 1.84-1.35 0-.41 0-.93 0-1.27.97-.92 1.82-1.73 2.87-2.72 0-.32 0-.95 0-1.56 1.9-.49.5-2.06 1.19-3.05.22-.02.55-.05.97-.09 0-1 0-1.95 0-2.79 2.01-.99.33-2.8 1.25-4.05h3.48v2.62c-.29.2-.57.39-.86.59.26.2.65.35.75.61.24.61.41 1.2 1.35.79.02-.49.05-1.04.07-1.5.34-.28.63-.52.93-.75-.27-.25-.55-.49-.9-.8 0-1.45 0-3.03 0-4.68h2.73c.06.26.13.55.2.85h1.76c.03-.59.06-1.13.1-1.81h2.08c0-1.42 0-2.72 0-4.08h1.68c.65.79 1.28 1.56 1.92 2.33.08-.05.15-.1.23-.15.03.55.05 1.1.09 1.74h2.1c0-1.92 0-3.86 0-5.85h1.66c.28.33.52.61.77.89.23-.24.45-.49.85-.92h2.74c0-1.37-.05-2.68.03-3.97.03-.47.36-.92.56-1.37.12.03.25.06.37.1 0-.52 0-1.03 0-1.67.61-.04 1.19-.08 1.86-.13 0-1.26 0-2.53 0-3.71.76-.56 1.4-1.04 2.18-1.62 0-1.7 0-3.61 0-5.6-.37-.03-.71-.06-1.12-.1 0-.6 0-1.15 0-1.79-.65 0-1.23 0-1.93 0v7.77c-.67 0-1.22 0-1.94 0 0-2.44-.02-4.91.04-7.37.01-.25.53-.49.89-.82 0-1.73 0-3.61 0-5.59-.99.07-.95-.58-.94-1.29.03-2.56.01-5.12.01-7.55-.37-.35-.66-.63-.95-.91.27-.21.54-.42.91-.7 0-.37 0-.88 0-1.49-.27-.09-.58-.19-.92-.31 0-.63 0-1.22 0-1.89-.4-.07-.76-.14-1-.19-.71-.93.67-2.43-1.16-2.99 0-1.23.05-2.55-.03-3.85-.02-.43-.36-.84-.55-1.26-.12.03-.24.07-.36.1 0-.51 0-1.03 0-1.3-.69-.74-1.22-1.32-1.91-2.06 0-.27 0-.78 0-1.1.38-.43.65-.77.95-1.08.12-.12.3-.29.43-.27.18.03.35.2.5.34.23.23.43.48.65.72.1-.07.2-.14.29-.21 0-1.59 0-3.18 0-4.61 1.08-.9 2.04-1.69 3.12-2.58 0-.33 0-.84 0-1.35.08.03.17.07.25.1.25-.41.46-.87.77-1.23.39-.46.86-.86 1.3-1.28.19-.18.39-.35.59-.52-.18-.15-.35-.31-.54-.45-.12-.09-.28-.12-.38-.22-.23-.23-.42-.49-.63-.73-.19.3-.37.6-.58.93-.48 0-1 0-1.17 0-.61-.48-1-.79-1.2-.95-.58.48-.89.73-1.17.99-.13.12-.3.29-.29.41.03.18.18.37.32.51.23.23.49.42.73.62-.07.1-.13.19-.2.29-.55 0-1.1 0-1.73 0-.02-1.34-1.03-.84-1.87-.88-.1.28-.21.59-.33.93-.61 0-1.21 0-1.9 0-.04.37-.08.7-.1.89.51.33.91.6 1.31.87-.06.12-.13.25-.19.37-.63 0-1.26 0-1.94 0-.11 1.51-1.15.9-2.01.99 0-1.33 0-2.59 0-3.58-.88-.87-1.57-1.56-2.41-2.38-.34 0-.94 0-1.63 0v2.35c.48.62.8 1.04.98 1.28.83.74 1.51 1.36 2.2 1.97-.07.1-.15.21-.22.31-.31.02-.62.05-.94.06s-.64 0-1.04 0c.02-1.46-1.08-.83-1.69-.97-.37-.42-.7-.8-1.03-1.17-.08.04-.16.08-.24.12 0-.63 0-1.26 0-1.65-1.03-.95-1.9-1.75-2.76-2.54-.1.09-.2.18-.3.27v1.77c.39.26 1.53-.2.99 1.02-.61 0-1.24 0-1.65 0-.44-.45-.76-.79-1.27-1.33 0-.23 0-.78 0-1.41.27-.06.55-.13.87-.21 0-.56 0-1.07 0-1.32-.44-.56-.76-.97-1.05-1.36 1.21-.91 2.86.64 3.44-1.29h2.57c.01-1.5 1.19-.78 1.96-1.05 0-.85 0-1.72 0-2.4-.58-.65-1.05-1.18-1.53-1.72-.1.06-.21.12-.31.18v3c-.66 0-1.2 0-1.75 0 .03-.1.07-.21.1-.31-.46-.2-.9-.52-1.37-.56-.99-.09-2 .02-3-.05-.4-.03-.77-.31-1.16-.48.04-.14.07-.28.11-.42-.55 0-1.1 0-1.71 0-.06-.41-.12-.74-.13-.79-.83-.68-1.51-1.18-2.12-1.75-.6-.57-1.13-1.22-1.93-2.1 0-.52 0-1.47 0-2.42-.14.03-.27.06-.41.09-.19-.46-.52-.91-.54-1.37-.07-1.56-.03-3.12-.03-4.67-.11.03-.23.07-.34.1-.21-.46-.56-.91-.59-1.38-.09-1.19-.03-2.39-.03-3.66-.4-.05-.74-.09-.95-.12-.75-.57.54-1.98-1.1-2.14-.09 1.08-.17 2.09-.28 3.1 0 .03-.43 0-.75 0 0-.99 0-1.94 0-2.85-1.08-.57-.96.14-1 .75-.04.52.34 1.43-.9 1.1 0-.96 0-1.91 0-2.94.27-.06.56-.12.93-.2 0-.62 0-1.21 0-1.79h.91v1.77c.1.07.21.15.31.22.3-.28.61-.56 1.09-1.01h1.68c.04.59.07 1.17.11 1.82.58.03 1.13.06 1.8.1v2.04h2.9c.03-.34.06-.68.09-1.07.39-.03.73-.06 1.14-.09 0-.62 0-1.17 0-1.79h1.89c.03.56.05 1.11.06 1.34.5.6.85 1 1.39 1.64h5.2c.58-.75 1.05-1.36 1.57-2.04h1.86v2.02h3.85c0-.62 0-1.28 0-2h2.1v1.84c-.41.27-.81.53-1.21.79.06.12.13.24.19.37.34.03.68.07 1.09.1v1.69c2.04.47 2.75.3 3.01-.72h2.95v1.79c.7.05 1.28.08 1.91.12v1.72c-.72.72-1.35 1.36-1.94 1.95.67.77 2-.35 2 1.26-1 0-1.94 0-2.82 0-.51.7-.93 1.32-1.43 1.88-.07.07-.55-.15-.78-.31-.26-.18-.45-.44-.68-.67-.08.08-.16.15-.25.23v1.88c.12-.03.23-.06.35-.09.19.46.51.9.54 1.37.07 1.32-.01 2.64.05 3.95.02.39.33.77.51 1.15.14-.04.27-.07.41-.11v1.64c.08-.05.15-.1.23-.15 1.41 1.35 2.82 2.7 4.23 4.04-.08.11-.16.23-.24.34.59 0 1.2-.08 1.77.03.44.08.84.39 1.26.59-.03.1-.07.21-.1.31h1.73c.5-.65.97-1.25 1.43-1.85-.02-.02-.03-.05-.05-.07.53-.45 1.06-.91 1.76-1.5 0-2.13.03-4.49-.03-6.84-.01-.35-.44-.69-.92-.91 0-.52 0-1.03 0-1.26-1.14-1.27-2.12-2.36-3.11-3.45-.02.02-.05.05-.07.07-.56-.45-1.13-.9-1.85-1.48 0-.36 0-.91 0-1.51-.35-.08-.64-.15-1.01-.24.32-.76-.69-1.93.94-2.16 0-.54 0-1.09 0-1.44-.41-.39-.72-.69-1.03-.99.07-.09.13-.18.2-.27h2.99v1.77c-.33.05-.67.1-1.08.17v1.81h1.98c.07.41.12.75.2 1.25h2.77c-.14.73.36.88.92 1.14.4.18.64.68 1.17 1.29-.27.23-.74.64-1.21 1.05.06.1.12.2.18.3h2.98v2.75c.73.64 1.25 1.11 1.96 1.72.01.29.04.84.07 1.46.28.07.57.14.93.22v1.65c.8.61 1.41 1.07 2.11 1.61v1.5c-.27.09-.58.19-.92.31v1.68c-.5-.04-1.09.52-1.25-.5-.03-.16-.56-.24-.89-.35v3.07h1.97c.1-.28.21-.59.33-.91h1.98c-.42.54-.69.88-1.09 1.4.34.6-.92 1.96.81 2.61v1.87c-.27.06-.55.13-.91.21v1.76c-1.03 0-1.97 0-3.02 0v5.05h2v3.77c-.32.06-.69.13-1.13.21v1.99c-.65.05-1.23.09-1.86.13v4.78c1.71.68.61 2.15.86 3.22.07.29-.34.69-.53 1.04-.12-.04-.24-.08-.36-.12v1.86c-1.88.5-.5 2.06-1.18 3.04-.45.02-.99.05-1.63.08v5.71c.3.27.58.51.86.75-.25.22-.5.44-.9.8v5.57c.28.06.56.13.83.19.18 1.92.18 1.92-.88 2.2v1.74 1.63c.39.34.67.58.95.82-.24.23-.49.45-.93.85v3.6c-.4.04-.73.08-1.19.13 0-.98 0-1.88 0-2.76-.94-.08-.94-.08-1.04 1.57-.31.19-.61.38-.9.57.25.21.53.39.74.63.42.49.75 1.05 1.2 1.5.26.26.67.37 1.12.59v2.29c-.54-.43-.86-.66-1.14-.93-.56-.54-1.09-1.11-1.63-1.67-.1.07-.19.14-.29.21 0 2.15-.03 4.31.03 6.46.01.31.47.6.89 1.11v2.28c-1.41-.02-.79 1.07-.98 1.83-1.87.52-.43 2.12-1.25 3.01-.21.46-.56.91-.59 1.38-.08 1.27-.03 2.55-.03 4.18-.78-.56-1.36-.98-2.14-1.54 0-1.65 0-3.56 0-5.46-.09-.08-.19-.16-.28-.24-.34.29-.67.57-1.22 1.03-.18 0-.69 0-.97 0-.49.5-.85.87-1.37 1.41v3.62h.88c0-.97 0-1.92 0-2.72.66-.56 1.18-1 1.94-1.65v8.07c.95.1.95.1 1.04-1.67.32-.03.66-.07 1.08-.11v4.06c-.34.03-.68.06-1.09.09v1.75c-.35.08-.64.15-.91.22-.16 1.74-.16 1.74-1.02 1.72 0-.86 0-1.73 0-2.59-.87-.15-.87-.15-1.1 1.73-.45 0-.92 0-1.39 0-.48 0-.96 0-1.57 0v5.7c-.66.7-2.09-.45-2.03 1.23-.6 0-1.15 0-1.82 0v2.13c-.78.04-1.43.07-2.14.11v3.72c.65.04 1.5-.15 1.91.2.35.29.2 1.19.16 1.69-.95 1.62-2.44 1.37-3.99 1.28-.04.64-.07 1.22-.09 1.58-.98.92-1.84 1.73-2.87 2.69-.06.26.23 1.09-.89.88-.22-.04-.57.59-.85.91-.46.54-.85 1.19-1.4 1.6-.43.31-1.08.32-1.45.42-.79.72-1.51 1.39-2.23 2.05-.04-.05-.08-.1-.11-.15-.41.62-.72 1.35-1.26 1.83-1.21 1.1-.6-1.78-2.02-.48 0-.19 0-.38 0-.57.27-.38.54-.77.81-1.15.09.05.17.1.26.15 0-.55 0-1.1 0-2.05-.69.56-1.18.96-1.85 1.52v4.7c.39-.09.79-.17 1.18-.25.07-.06.13-.13.2-.19-.06-.01-.13-.02-.19-.03l.2-.2c.01.06.02.13.03.19.06-.07.13-.13.19-.2 1.99-.26 3.43-1.78 5.29-2.44.02-.22.05-.52.08-.87.37-.04.71-.07 1.08-.11-.64-1.24.56-.74.87-.94.03-.36.04-.61.05-.64.44-.3.77-.53 1.11-.75.06-.08.12-.15.17-.23.02.07.04.15.05.22h.11l.1-.03c-.09-.06-.17-.13-.26-.19.09.06.17.13.26.19.98-.9 2-1.77 2.91-2.73 1.04-1.09 1.8-2.49 3.46-2.82.1-.02.2-.14.25-.24.4-.74.48-1.78 1.7-1.71.05 0 .09-.31.18-.45.42-.67.7-1.62 1.3-1.92 1.14-.57 1.7-1.26 1.59-2.55.33.02.64.04.97.06 0-.37 0-.65 0-1 .31-.02.64-.05.97-.07-.1-.07-.19-.14-.29-.21.58-1.27 1.15-2.55 1.77-3.8.18-.36.46-.89.75-.93.76-.1.7-.55.63-1.04-.14-.9.28-1.12 1.14-.82-.15-1.14-.4-2.2.88-2.75.2-.08.25-.51.36-.78.39-.92.77-1.84 1.16-2.76.27-.64.56-1.27.82-1.92.17-.42.29-.86.43-1.29.11.03.21.06.32.09.06-.81-.2-1.91.24-2.38.76-.83.85-1.63.8-2.61-.02-.4.15-.81.27-1.21.21-.67.55-1.31.64-1.99.17-1.29.21-2.6.3-3.89.06-.07.12-.15.19-.22h.03c0-.01 0-.02 0-.04l-.04.04c.08-.08.16-.16.23-.25.01.06.02.13.03.19.06-.07.13-.13.19-.2.14-1.74.28-3.48.42-5.23h2.62c.28 1.05.67 1.13 2.84.87 1.3-1.34 2.35-2.45 3.43-3.51.24-.23.64-.31.96-.46-.11-.04-.21-.08-.32-.12.5-1.25.82-2.62 1.57-3.69.4-.57.63-.96.61-1.63-.02-.59.13-1.18.19-1.7.35.03.58.04.81.06 0-3.3 0-6.51 0-9.78-1.55-.02-.42 1.33-1.04 1.84-.26.05-.62.13-.92.19 0 1.85.02 3.61-.01 5.36-.01.73.18 1.62-.99 1.59v3.85c-.39.09-.68.16-.96.23-.03.63-.06 1.18-.09 1.73-.09-.06-.18-.12-.26-.18-.65.76-1.3 1.52-2.03 2.36-.41 0-1.04 0-1.33 0-.5-.62-.83-1.03-1.17-1.44-.08.04-.16.09-.24.13 0-.55 0-1.1 0-1.64-.12.04-.24.08-.36.12-.19-.35-.56-.72-.53-1.05.07-.8-.62-1.97.95-2.23 0-2.63 0-5.26 0-7.89.82 0 .82 0 .97 1.47.88.89 1.49 1.54 2.14 2.14.21.2.54.28.89.44 0-.8 0-1.35 0-1.54-.44-.5-.89-.81-.85-1.03.06-.33.47-.6.94-1.14 0-.84 0-2.03 0-3.32.36 0 .63.01.9 0 .31-.01.61-.04.9-.07.2-1.99.2-1.99 1.01-2.29.03-.55.06-1.09.09-1.71.41.02.74.04 1.14.05v1.87c0 1.1 0 1.1.96 1.07 0-1.27-.05-2.54.03-3.81.03-.47.35-.91.54-1.37.39-.58.49-1.25.7-1.89.12-.36.63-.68.6-1-.04-.58-.1-.97.65-1.01.09-.01.21-.42.24-.65.07-.5.02-1.03.15-1.52.09-.33.38-.6.59-.9.08.05.16.1.23.15.06-.98.11-1.97.17-2.94 2.48-.12.4-2.1 1.45-2.79.29-.31.63-.65.64-.99.05-2.38.03-4.76.03-7.18-.35-.15-.66-.18-1.09-.23zm-167.92-6.93h2.81v2.85c1.88.59.54 2 1.06 2.95-.97.06-.97.06-1.06-1.17-.79-.99-1.33-1.7-1.91-2.37-.22-.25-.55-.41-.9-.66 0-.51 0-1.02 0-1.6zm-4.23-2.3c.04-.52.09-1.15.15-1.82h3.97c.03.35.05.68.09 1.08-.41.06-.74.1-1.15.16-.03.56-.06 1.1-.08 1.47-.93.87-1.75 1.64-2.57 2.41-.09-.08-.18-.15-.26-.23 0-.55 0-1.1 0-1.5-.44-.29-.75-.5-1.06-.7.26-.25.53-.52.91-.87zm-1.88 3.82c-.02-.19.25-.42.39-.63.21.15.44.28.63.45.07.06-.01.26.06.34 1 1.28 1 1.28.81 3.58-.41-.37-.64-.57-.85-.8-.07-.07-.04-.31-.09-.32-1.65-.38-.83-1.68-.95-2.62zm.74 13.57c-.72.09-.86-.26-.74-1.16.18-1.26.04-2.57.04-3.88h1.94c0 1.7-.03 3.36.02 5.02.01.39.32.77.49 1.15.13-.04.26-.07.39-.11v2.02c-.63-.48-1.02-.94-1.52-1.15-1.07-.43.06-1.25-.62-1.89zm10.14 28.07v2.8c.41.04.75.06 1.16.1v1.44c.48.46.8.75 1.11 1.05-.06.09-.13.19-.19.28-.63 0-1.26 0-1.75 0-.4-.42-.74-.79-1.28-1.35 0-.52 0-1.35 0-1.91-.68-.8-1.17-1.39-1.87-2.21 0-.79 0-1.99 0-3.07.33-.3.6-.55.87-.79-.26-.22-.52-.43-.94-.78 0-1.36 0-2.95 0-4.6-.35-.07-.64-.14-.93-.2 0-.35 0-.66 0-.97.3.03.55.05.81.08.28-2.06.28-2.06 1.06-2.01v1.93c.36.07.64.13.96.2v2.49c.69.53 1.29 1 1.89 1.46.03-.02.06-.04.09-.06.43.56.87 1.12 1.52 1.97-1.07 0-1.73 0-2.47 0v2.44c-.46.47-.73.75-1.01 1.04.29.2.57.39.97.67zm3.08-20.49v5.15c.13-.03.26-.07.39-.1.2.46.56.91.57 1.37.05 2.87.03 5.75.03 8.76-1.58-.04-.65-1.22-1.13-1.85-.15-.04-.44-.11-.79-.19 0-1.66.03-3.3-.02-4.93-.01-.39-.31-.76-.47-1.14-.14.03-.27.06-.41.09 0-1.91 0-3.82 0-5.63.58-.48 1.09-.91 1.83-1.53zm-1.26-4.87c.09.06.17.11.26.17v4.02c-.67 0-1.27 0-1.67 0-.43.44-.75.76-1.07 1.08-.09-.07-.18-.14-.26-.21 0-.55 0-1.09 0-1.64.06.04.12.09.18.13.33-.41.65-.83.98-1.24-.06-.07-.12-.14-.17-.2.34-.04.68-.07 1.13-.12 0-.47-.07-.92.03-1.32.05-.26.38-.45.59-.67zm-1.94-8.63c.48.5.92 1.03 1.52 1.71-.62.07-.96.11-1.36.16v1.59c.44.28.85.55 1.25.81-.06.12-.12.24-.18.36-.34.04-.68.08-1.1.13v1.97c-.35.08-.64.15-.97.23v1.61c-.4.34-1.48.01-.92 1.15-.73 0-1.28 0-1.75 0-.7.68.57 2.15-1.17 2.27v4.64c-.48.03-.9.05-1.1.06-.59-1.06.55-2.37-1.07-3.15 0-.39 0-.94 0-1.49-.08.05-.16.09-.24.14-.61-.73-1.21-1.46-2.03-2.44h3.12c0-.61 0-1.15 0-1.79-.22-.08-.53-.18-.81-.28 0-3.32 0-6.58 0-9.75.7-.63 2.17.65 2.18-1.12h2.03c-.4.53-.65.87-.91 1.21-.07-.05-.15-.09-.22-.14v1.85c-.34.11-.64.22-.99.33v2.61c-.4.07-.76.14-1.16.21v2.98c.37.03.71.06 1.12.1v1.79h1.82c.59-1.29-.56-3.03 1.08-4.52 0-.45 0-1.32 0-1.84.47-.54.72-.84.99-1.13.12-.13.25-.27.4-.32.16-.08.38-.04.47.06zm11.1-44.77c-.45.56-.64.94-.94 1.14-.22.14-.68.17-.88.03-.33-.23-.53-.64-.98-1.23 0-1.18 0-2.73 0-4.02.41-.49.67-.83.96-1.14.11-.12.31-.28.43-.26.18.03.35.2.49.34.25.25.47.53.92 1.03zm-.84-13.31c0-1.17 0-2.15 0-3.13.76-.3 1.05.07.87.7-.22.76.68 1.94-.87 2.43zm5.93-.02v1.7c-.31.08-.6.14-.96.23v5.81c-.66 0-1.23 0-1.86 0 0-.58 0-1.12 0-1.67 1.56-.36.74-1.61.86-2.47.04-.32-.34-.69-.53-1.04-.11.04-.22.08-.33.12 0-.55 0-1.09 0-1.64.11.03.21.07.32.1.2-.46.52-.9.56-1.37.09-.94.03-1.9.03-2.92h1.8c.33.36-.29 1.62 1.14 1.08-.27.87.52 1.93-1.03 2.07zm37.03 102.84c1.54.14.6 1.22.9 1.81-1.04.07-1.04.07-.9-1.81zm.12 3.11c-.51.74.46 1.91-1.25 1.95.41-.71-.58-1.82 1.25-1.95zm13.66 55.9c-.42 0-1.04 0-2.05 0 .54-.7.94-1.22 1.41-1.83h2.19c-.6.71-1.01 1.19-1.55 1.83zm5.05-.98c-.6 0-1.17 0-1.8 0 0-1.3 0-2.56 0-3.67.64-.58 1.11-.99 1.8-1.61zm17.16-1.94c.84-.1.84-.1.96.76.48.31.87.55 1.24.79-.85.63-1.44 1.07-2.21 1.63.01-1.23.01-2.21.01-3.18zm-3.01 1.07v1.75c-.07.08-.14.16-.21.24-.22-.24-.57-.44-.64-.72-.1-.4-.02-.84-.01-1.26.25-.01.52-.01.86-.01zm-.9-1.22v1.18c-.34 0-.69 0-1.11 0-.03-.36-.05-.7-.08-1.12.39-.01.73-.03 1.19-.06zm-.89-58.76h3.99c-.55.71-.96 1.24-1.42 1.84-1.19 0-2.45 0-4.12 0 .61-.71 1.02-1.2 1.55-1.84zm1.74 2.89c.07 1.22-1.1 1.95-3.25 1.78.58-.68 1.01-1.19 1.51-1.78zm-12.76 6.98h1.78v2.04c-.61 0-1.16 0-1.78 0 0-.66 0-1.31 0-2.04zm-11.08-.76c.84-.79 1.72-1.53 2.81-2.49v1.89c-.41.37-.79.71-1.38 1.24-.21 0-.76 0-1.4 0-.02-.22-.13-.55-.03-.64zm-8.08 34.76c-.07.11-.14.23-.21.34.47.41.93.83 1.4 1.24-.05.1-.11.2-.16.3-.95 0-1.9 0-2.74 0-.56.72-1.02 1.33-1.65 2.14-.67 0-1.65 0-2.7 0 0-.35 0-.68 0-1.09.37-.03.71-.06 1.09-.09 0-.94 0-1.81 0-3.13-.81.58-1.39.99-2.08 1.48v1.15c-.52.62-.89 1.06-1.42 1.69-1.26 0-2.85 0-4.29 0-.37-.52-.7-.98-1.02-1.44-.08.04-.17.08-.25.13 0-.52 0-1.03 0-1.55-.12.04-.24.07-.35.11-.21-.46-.58-.91-.59-1.38-.06-2.24-.03-4.48-.03-6.72 0-.63-.24-1.44.95-1.11 0-.76 0-1.35 0-2.03 1.48-.02.8-1.18 1.04-1.94.28-.06.56-.13.88-.21 0-.58 0-1.1 0-1.68.4-.08.76-.15 1.18-.23 0-.95 0-1.86 0-2.84.34-.12.65-.22.99-.34 0-.54 0-1.05 0-1.25.86-.92 1.54-1.65 2.22-2.38-.06-.08-.13-.15-.19-.23h.89c-.01 1.03.03 2.06-.05 3.09-.03.4-.33.77-.64 1.11-.87.89.68 2.54-1.24 3.13v3.53c-1.68.07-.7 1.4-.88 1.77-.56.55-.87.85-1.17 1.15.07.09.14.18.2.27.55.03 1.1.05 1.75.09v1.68c.38.14.69.25 1.07.38v1.72h2.9c.24 1 1.37 2.1 2.06 2.05 0-.59 0-1.18 0-1.74-.58-.49-1.14-.97-1.88-1.59 0-2.49-.02-5.2.03-7.92.01-.3.47-.6.95-.79 0-.63 0-1.25 0-1.93h4.93c.05.33.09.66.16 1.1.28.02.58.04.87.06.19.75-.48.78-.86 1.15-1.02 1-1 1.07-1.5-.12-.56 0-1.1 0-1.53 0-.66.98.72 2.53-1.11 3.01v3.57c.65.55 1.22 1.02 1.86 1.57.02.43.05.97.08 1.66 1.36-.53.69.7 1.07 1.17h1.98c0 .63-.01 1.26-.01 1.89-.66 0-1.33 0-2 0zm21.36-18.88c-.41.07-.72.73-1.31 1.01v1.52c-.73.56-1.34 1.03-1.95 1.5-.58.55.5 1.92-1.21 2.05v1.75c-.63 0-1.17 0-1.82 0v1.47c-.71.76-1.25 1.33-1.99 2.12v1.43c-.7 0-1.32 0-1.73 0-1.32 1.4-2.5 2.64-3.67 3.88l.21.24c-.59 0-1.19 0-1.67 0-.56.66-1.04 1.22-1.63 1.92-.4 0-1 0-1.59 0 .01-.44-.19-.97.61-.98.13 0 .25-.52.43-.93-.84 0-1.42 0-1.99 0 0-1.01 0-2.02 0-2.98.81-.34 2.04.46 2.01-1.09h1.34c.78-.7 1.36-1.21 2.13-1.89.27-.01.82-.04 1.3-.06.29-1.15 1.06-1.68 1.94-2.26.8-.53 1.34-1.44 1.99-2.18.11.07.22.15.33.22 0-.55 0-1.1 0-1.37 1.8-1.89 3.43-3.59 5.19-5.42h1.64c.07-.32.14-.6.21-.93h1.79c.02.39.22.84-.56.98zm.62-1.05c0-.36 0-.73 0-1.17h1.89v1.17c-.65 0-1.27 0-1.89 0zm21.06-4.85c-.47-.24-.84-.37-1.15-.59-.29-.21-.53-.5-.97-.93 0-.36 0-.99 0-1.69-.65 0-1.22 0-1.89 0v2.01c-.62 0-1.16 0-1.47 0-.76.71-1.33 1.25-2.08 1.95-.59 0-1.46 0-2.18 0-.32-.36-.57-.63-.81-.91-.22.26-.44.51-.88 1.04-.63.47-2.26-1.06-2.88.85-.48 0-1 0-1.36 0-.57.68-1.05 1.24-1.63 1.92-.51 0-1.17 0-1.84 0 0-.61 0-1.23 0-1.84.1.06.2.13.3.19.4-.35.8-.69 1.4-1.21h1.09c.57-.67 1.04-1.24 1.59-1.89.42-.02.97-.05 1.54-.08.05-.4.09-.74.14-1.2h2.03c0-.68 0-1.23 0-1.46-.51-.52-.84-.86-1.39-1.42-.25.2-.65.52-1.27 1.02-.16 0-.67 0-1.2 0-.12.34-.23.65-.35.98-.58 0-1.1 0-1.47 0-.54.72-1.01 1.34-1.64 2.18-.71.44-2.31-.95-2.91.91-.5 0-1.02 0-1.39 0-.57.67-1.04 1.24-1.61 1.91-.45 0-1.04 0-1.67 0-.11.34-.22.65-.35 1.03-.59 0-1.13 0-1.75 0v1.99c-.08-.04-.16-.08-.24-.12-.33.38-.66.75-1.11 1.26-.46 0-1.08 0-1.78 0v1.82c-.63 0-1.17 0-1.55 0-.6.71-1.07 1.27-1.68 1.99-1.09 0-2.36 0-3.63 0-.05.42-.1.76-.15 1.14-.98 0-1.88 0-2.79 0 0-.98 0-1.97 0-3.03.63-.04 1.2-.08 1.86-.13 0-.58 0-1.13 0-1.65.91-.2.91-.2 1.11 1.88.59-.44 1.08-.76 1.53-1.13.51-.43 1.01-.88 1.47-1.37.43-.45.79-.96 1.19-1.44-.05-.1-.11-.2-.16-.3.43 0 .88.09 1.27-.03.31-.1.55-.44.7-.9h1.94c.08-.35.15-.64.23-.97h1.42c.43-.48.77-.85 1.34-1.47 0-.9 0-2.16 0-3.52.65-.04 1.23-.08 1.88-.13.03-.58.06-1.13.09-1.77h3.02c.03.54.07 1.12.11 1.76h2.39c.88-.76 1.64-1.41 2.56-2.2.01-.3.04-.85.07-1.52h1.48c.63-.87 1.08-1.54 1.62-2.15.04-.05.64.4 1.27.79.61-.26 1.99.83 2.84-.84h1.41c.66-1.87 2.14-.52 2.94-.97.45.47.8.84 1.33 1.4v1.36c.66.56 1.22 1.04 1.92 1.63v1.42c.34.12.64.22.98.34v1.64c.4.08.77.15 1.16.22.01.67.01 1.29.01 2.23zm19.9-6.4c-.01.11-.49.18-.87.3 0-.87 0-1.47 0-2.23.32.05.81.07.82.15.08.59.11 1.2.05 1.78zm13.18-10.9c-.11-.65.94-1.75 1.74-1.81v1.81c-.59 0-1.16 0-1.74 0zm2.89-4.96v3.11c-.37 0-.74 0-1.11 0 0-.98 0-1.95 0-3.02.37-.03.7-.06 1.11-.09zm-13.35-41.31c.08.04.15.09.23.13 0-.86 0-1.73 0-2.72.41.03.88-.08 1.05.1.76.8 1.44 1.68 2.16 2.54-.86.51-2.09-.43-2.08 1.13-.67 0-1.29 0-2.32 0 .42-.52.69-.85.96-1.18zm-10.67 1.16c-.61 0-1.26 0-2.01 0 .39-.99-1.43-.74-1.01-1.82h3.02zm.11-7.72v1.7c-.41.06-.74.12-1.11.17-.1 1-.19 2-.32 3 0 .03-.42 0-.73 0 0-1.34 0-2.61 0-3.86-.93-.15-.93-.15-1 1.58-.38.39-.65.68-.93.97.28.2.57.39.93.64v1.65c-.55 0-1.09 0-1.58 0-.35-.4-.68-.78-1.01-1.15-.08.04-.15.08-.23.13-.03-.55-.05-1.1-.09-1.74-.33-.03-.67-.07-1.16-.12v1.48 1.52c-.41-.17-.7-.24-.94-.4-.23-.17-.4-.42-.59-.64-.19.29-.39.57-.61.9-.8 0-1.67 0-2.6 0 0-.91 0-1.77 0-2.43 1.07-1.19 2.05-2.28 3.15-3.49h1.41c.11-.34.21-.64.33-.98h5.68c.24-1.56 1.38-.78 2.29-.98-.11.82.66 1.84-.89 2.05zm-.33-8.95c.51.59.94 1.1 1.57 1.84-1.04 0-1.63 0-2.17 0-.47-.56-.91-1.09-1.53-1.84zm7.27-74.4c0-.51 0-1.02 0-1.37.64-.55 1.15-.98 1.86-1.59v2.64c-.75.87-1.3 1.52-1.86 2.16-.2.23-.44.43-.76.55-.05-.94-.81-2.05.76-2.39zm.94 28.41v1.47c-.36.3-.64.54-.93.78.28.24.56.49 1.09.94-.24.23-.53.49-.8.77-.12.12-.29.3-.27.43.03.18.2.35.34.5.22.23.47.43.71.64-.07.09-.13.19-.2.28-.55 0-1.1 0-1.4 0-.7-.61-1.22-1.07-1.75-1.53.06-.09.12-.19.18-.28.34-.04.68-.07 1.07-.11 0-.36 0-.66 0-.88-.44-.28-.85-.54-1.26-.8.06-.12.12-.24.18-.36.34-.04.68-.08 1.08-.13 0-.58 0-1.12 0-1.8-.4-.04-.73-.07-1.1-.11 0-1.35 0-2.62 0-3.95h3.41c-.53.54-.83.84-1.26 1.28v2.57c.28.08.59.19.91.29zm-3.98-18.72c.24-.63 1.13-1.02 1.66-1.46.63.76 1.06 1.26 1.68 2.01-1.04 0-1.67 0-2.24 0-1 1.4 1.65.57.83 1.84-.24.05-.61.12-1.01.2v1.99c.35.05.69.1 1.09.15v3.43c-.71.53-1.35 1.01-2.12 1.58v2.78c-.63 0-1.17 0-1.72 0 .04-.06.08-.12.12-.18-.34-.25-.71-.47-1.01-.76-.14-.13-.28-.5-.21-.58.55-.62 1.15-1.19 1.89-1.92 0-1.42-.03-3.05.02-4.69.01-.39.32-.77.49-1.16.13.03.26.07.39.1 0-.55 0-1.09 0-1.64-.1.03-.2.06-.3.1-.19-.4-.39-.81-.58-1.21.41-.05.77.09 1.02-.58zm-1.64-.63c.19.4.38.8.57 1.2-.58 0-1.15 0-1.46 0-.46.48-.76.79-1.06 1.1-.09-.07-.18-.13-.27-.2 0-1.3 0-2.59 0-3.95h1.81v1.95c.13-.04.27-.07.41-.1zm.53-14.83v2.09c-.23 0-.58.09-.65-.01-.45-.62-.83-1.28-1.33-2.08zm-1.93 8.13v2.21c-.43-.46-.78-.67-.85-.95-.11-.4-.03-.84-.02-1.27.27.01.54.01.87.01zm-4.06-9.08v2.05c-.5-.38-.84-.64-1.17-.9-.35-.62-1.64.42-1.65-1.16 1.03.01 1.89.01 2.82.01zm-2.76 4.1h1.85v.88c-.43.01-.86.08-1.27-.01-.28-.06-.51-.36-.76-.55.06-.11.12-.21.18-.32zm-6.01 11.48c.5-.61.83-1.02 1.33-1.64h2.39v1.89c-1.73.48-.45 2-1.17 3.18-.8-.74-1.61-1.48-2.55-2.36 0-.32 0-.86 0-1.07zm1.86 20.38c.01.43.08.86-.01 1.27-.06.28-.36.51-.55.76-.11-.06-.21-.12-.32-.18 0-.58 0-1.15 0-1.85zm-.02 3.93v2.01c-.28-.02-.78 0-.79-.07-.09-.5-.14-1.02-.08-1.52.02-.15.46-.23.87-.42zm-4.13-34.84c.03.19.07.31.07.42.01.4 0 .8 0 .92-.43.56-.66.99-1.01 1.26-.18.14-.66.11-.86-.04-.32-.24-.51-.65-.95-.88 0-.55 0-1.09 0-1.69.93.01 1.79.01 2.75.01zm-1.84 18.03v2.39 2.15c.45.43.77.73 1.08 1.03-.07.1-.13.19-.2.29-.55.03-1.1.06-1.82.09v1.8c-1.34 0-2.61 0-3.84 0-.44-.52-.89-1.04-1.51-1.78h1.96c-.03-.07-.06-.14-.09-.22.37-.28.75-.54 1.09-.85.12-.11.23-.44.17-.5-.25-.24-.56-.41-.88-.63-.03-.85.95-1.88 2.1-2.01 0-.41-.09-.86.03-1.25.1-.31.45-.55.87-1.04 0-.21 0-.76 0-1.38-.27-.06-.56-.13-.88-.21 0-.96 0-1.88 0-2.7-.27-.59-1.7.09-1.07-1.23h1.71c.34.38.66.75.99 1.13.82.85-.66 2.47 1.22 3.11-.18.63.64 1.71-.93 1.81zm-.92 19.65c0-.53 0-1.08 0-2.07 1.05.98 1.86 1.75 2.81 2.63v1.45c-.59.5-1.1.94-1.58 1.36-.94-1.06.7-2.78-1.23-3.37zm.79-45.57c.07.93.07.93-1.61.82-.19-1.02-.19-1.02 1.61-.82zm-4.96-3.18c-.02.28 0 .78-.07.79-.5.09-1.02.14-1.52.08-.14-.02-.23-.46-.42-.87zm-1.88 7.86c0-.64 0-1.19 0-1.82h3.23c.68-.54 1.09-.86 1.5-1.18.1.09.2.18.3.27v2.6c.09-.05.18-.1.27-.14.29.41.58.81.87 1.22-.11.08-.23.16-.34.25-2.22 0-4.44 0-6.68 0-.23-.79-.18-1.32.85-1.2zm.94 8.18c-.4.06-.96-.2-.97.6 0 .15-.46.3-.86.53-.04-.77-.06-1.32-.09-1.96-.34-.07-.7-.15-1.1-.23 0-.34 0-.67 0-1.05h1.91c.37.72.74 1.41 1.11 2.11zm-1.97-14.1v2.04c-.97 0-1.94 0-2.97 0 0-.65 0-1.28 0-2.04zm-8.01 37.15c0-1.05 0-2.02 0-3.12h1.87c.38-1.03.38-1.03 1.98-.9.44 2 .28 2.65-.8 3.02v2.2c-.57-.44-.91-.7-1.24-.97.05-.08.09-.16.14-.24-.62.01-1.25.01-1.95.01zm.9-26.15h1.97c.18 1.07.18 1.07-1.97.85 0-.27 0-.56 0-.85zm1.28-7.8c.93-.07.93-.07.81 1.62-1.01.18-1.01.18-.81-1.62zm1.84 26.77c.21-.74-.53-1.73.8-1.84-.14.62.82 1.7-.8 1.84zm.87-8.95c-.85-.06-.85-.06-.91-1.66-.1.04-.2.07-.3.11-.21-.46-.57-.9-.59-1.37-.07-1.59-.03-3.18-.03-4.86h1.84c-.01 2.54-.01 5.11-.01 7.78zm-3.99-23.86h3.21c-.05.61-.09 1.14-.15 1.79-1.01 0-1.95 0-3.06 0 0-.61 0-1.21 0-1.79zm-.03 13.81c-.42-.01-.97.24-.97-.57 0-.12-.31-.23-.45-.38-.21-.22-.4-.46-.77-.9h2.19zm-3.74-11.91h1.5c.39.41.74.78 1.32 1.39-.28.38-.71.93-1.24 1.63-.47 0-.98 0-1.58 0 0-.99 0-1.97 0-3.02zm-12.03-.35c.72.6 1.22 1.02 1.88 1.56v2.76c.36.02.65.04.94.05v.89c-.57 0-1.11 0-1.49 0-.43.46-.74.79-1.05 1.13-.09-.07-.18-.13-.27-.2 0-.87 0-1.73 0-2.51.33-.28.62-.51.9-.75-.28-.24-.56-.48-.9-.78-.01-.51-.01-1.14-.01-2.15zm-20.28 11.3c.13 1.88.13 1.88-.9 1.8.3-.58-.64-1.66.9-1.8zm-23.86 30.84c0-.8 0-1.66 0-2.41.68-.52 1.33-1 2.08-1.57 0-1.91-.03-3.94.02-5.97.01-.39.31-.77.48-1.16.13.04.27.07.4.11 0-.55 0-1.1 0-1.77-.56-.03-1.14-.05-1.84-.08 0-.93 0-1.83 0-2.79-.82-.04-1.51-.08-2.21-.11.02-.31.03-.61.03-.59.45-.61.68-1.24 1-1.3.79-.13 1.09-.71 1.55-1.18.51-.52.99-1.07 1.55-1.54.24-.21.61-.27.92-.39.07-.4-.2-.96.61-1.01.19-.01.35-.64.6-.9.25-.3.48-.61.75-.89.11-.13.28-.2.41-.31.27-.22.5-.5.79-.67.27-.16.6-.2.91-.3.02-.28.04-.55.06-.9.56-.02 1.11-.05 1.55-.07.54-.63 1.02-1.2 1.62-1.91h1.7c-.06-.08-.12-.16-.18-.24.83-.91 1.66-1.83 2.6-2.86h1.21c.57-.68 1.05-1.24 1.61-1.91h1.63c.55-1.83 1.98-.58 2.91-1.03.1.11.2.22.3.33-.5.55-.99 1.11-1.51 1.65-.55.57-1.13 1.12-1.92 1.9-.27 0-.9 0-1.36 0-.74.9-1.38 1.67-2.01 2.43-.08-.05-.16-.1-.24-.14v1.7c-.35.08-.64.15-1.01.23v2.74c-.31 0-.61 0-.92 0 0-.93 0-1.87 0-2.8-.13-.06-.26-.12-.39-.19-.19.25-.52.49-.55.75-.08.74-.04 1.49-.05 2.23-.36.02-.72.03-1.14.05-.02.42-.04.78-.05 1.14-.63 0-1.26 0-1.89 0 0-.7 0-1.4 0-2.12-.41 0-.69 0-.97 0v2.1c.4.02.67.04.93.05v2.68c.32.12.63.23.95.34v1.32c-.66.73-1.18 1.3-1.88 2.08v2.3c-.48.22-1.4.03-.92 1.11-1.13 0-2.08 0-3.11 0-.03.36-.05.65-.08.95-.27.02-.54.03-.78.05-.66 1.32.57 3.07-1.07 4.55v2.44c.11-.03.21-.06.32-.1.2.46.53.9.56 1.37.08 1.19.03 2.38.03 3.64-.63 0-1.18 0-1.8 0-.06-1.6-1.41-.58-2.2-1.03zm22.01-27.71c-.68 0-1.3 0-1.91 0 0-.34 0-.69 0-1.11h1.84c.02.32.04.65.07 1.11zm-6.95 6.9c0-.69 0-1.39 0-2.08h.79c.38 1.79.3 2.05-.79 2.08zm-1.04 1.1v1.74c-.75.29-.96-.04-.89-.7.05-.53-.24-1.32.89-1.04zm-2.07-1.11c0-.28 0-.57 0-.86.36-.02.72-.03 1.15-.05.02-.42.04-.78.05-1.14h.93v2.06c-.7-.01-1.36-.01-2.13-.01zm1.1 10.02v2.97c-.71 0-1.33 0-2.02 0 0-.99 0-1.93 0-2.97zm-7.15 7.56c0 .21-.41.41-.64.62-.09-.06-.19-.13-.28-.19 0-2.69 0-5.38 0-8.07h.94c.01 2.56.02 5.1-.02 7.64zm-3.84 14.5c.19-.86-.39-1.78.82-1.9-.02.68.65 1.69-.82 1.9zm.05-5.14c.05-.32.05-.81.13-.82.5-.09 1.03-.12 1.53-.05.13.02.19.48.33.87-.8 0-1.31 0-1.99 0zm3.75 4.04c-.59 0-1.14 0-1.77 0 0-.96 0-1.93 0-3.02h1.77zm6.14-5.57c-.06.61-.14 1.54-.27 2.46 0 .03-.43 0-.74 0 0-.92 0-1.79 0-2.75-.97 0-1.86 0-2.88 0v2.78c-.38-.04-.84-.02-.86-.1-.3-1.25-2.16-1.22-2.31-2.74h1.9c.52-.7.95-1.32 1.45-1.88.05-.05.51.22.74.39.24.18.44.42.91.88 0-1.05 0-1.67 0-2.01.47-.53.73-.88 1.04-1.18.14-.14.49-.32.53-.28.24.25.41.56.67.95h.92v.87c-.5.33-.9.59-1.29.86.06.12.13.25.19.37.34.03.68.05 1.03.08.06.11.13.22.19.34-.33.27-.68.54-1.22.96zm7.08-2.37c-.33.03-.66.06-1.06.09-.06-.41-.11-.74-.17-1.17-.86 0-1.73 0-2.45 0-.34-.42-.57-.71-.8-1-.18.23-.31.54-.55.69-.26.15-.6.17-.91.24 0-.58 0-1.16 0-1.8.32-.07.61-.12.96-.2 0-.94 0-1.8 0-2.74h1.84c0-.73 0-1.39 0-2.04.11-.08.21-.15.32-.23.31.26.61.52.92.77-.04.08-.09.15-.13.23h1.98v3.86c-.42.27-.82.54-1.21.8.06.12.13.24.19.36.34.03.68.07 1.07.1zm.55-26.13c-.27 0-.9 0-1.61 0 0-.88 0-1.77 0-2.76 1.11.57.98-1.37 2.07-1.01.21.4.41.8.62 1.2.1-.03.21-.07.31-.1v1.44c-.41.36-.78.69-1.39 1.23zm2.39 18c-.67 0-1.21 0-1.84 0 0-.88 0-1.78 0-2.56.58-.51 1.1-.96 1.8-1.57 0-.37 0-1 0-1.72h1.87v3.05c-.62 0-1.17 0-1.83 0zm3.04 6.95c-.34.04-.68.07-1.09.12-.03.37-.05.71-.09 1.21-.36-.12-.85-.2-.85-.29-.01-.62-.13-1.07-.88-1.07-.05 0-.19-.43-.12-.51.43-.46.9-.9 1.38-1.3.06-.05.4.08.46.21.07.13.08.28.07.33.58.44.94.71 1.29.97-.05.11-.11.22-.17.33zm.97-5.09c-.43.41-.79.75-1.15 1.09-.58.43-1.13.85-1.86 1.4 0-1.24 0-2.19 0-3.06.69-.55 1.25-1 1.81-1.45.74-.29-.43-1.72 1.2-1.68zm-.72-27.8c-.42-.24-.67-.76-.99-1.15-.11.06-.22.13-.32.19 0-.98 0-1.95 0-3.02h1.97c.08-.35.15-.64.21-.87.65-.41 1.89.53 1.9-1.05h3.89c.08-.35.15-.64.23-.96h1.64c.11-.34.21-.65.32-.99h4.77c.07-.4.14-.76.21-1.16h2.71v2.08c-.58 0-1.12 0-1.81 0 .43 1.11-1.39.86-1.02 1.94-2.26 0-4.52 0-7.21 0 .58.73.95 1.2 1.51 1.91-1.96 0-3.55 0-5.25 0 .06.53-.49 1.15.53 1.25.13.01.33.32.33.48-.01.16-.24.31-.38.45-.17.16-.36.3-.54.45.19.17.4.34.58.53.14.15.38.43.35.47-.4.5-.82.98-1.29 1.41-.07.06-.49-.07-.56-.22-.42-.77-1.01-1.3-1.78-1.74zm5.76 12.14v3.14c-.82-.61-1.4-1.04-2.06-1.53 0-.46 0-1 0-1.61zm10.8 17.89c-.63 0-1.17 0-1.72 0-.07-.09-.15-.18-.22-.28.25-.21.5-.6.75-.6.5-.01 1.44-.45 1.19.88zm4.15-.31c.38.35.72.67 1.05.98-.07.09-.14.18-.21.28-.55 0-1.1 0-1.42 0-.47-.47-.83-.83-1.35-1.35 0-2.64 0-5.56 0-8.23-.42-.44-.67-.77-.98-1.01-.28-.22-.63-.35-.85-.47-.34.47-.55.74-.75 1.02-.19-.22-.35-.49-.58-.66-.21-.17-.49-.25-.91-.45v2.19c-.92.06-.92.06-1.12-1.02-.54 0-1.08 0-1.76 0v4.93c-.75 0-1.38 0-2.18 0 0-1.48-.04-2.98.04-4.48.01-.26.52-.5.89-.82 0-.69 0-1.52 0-2.16-.47-.46-.83-.81-1.35-1.31-.28 0-.82 0-1.43 0v7.56c1.75 1.14.43 2.84.96 4.07-.4.29-.72.5-1.02.74-.24.2-.46.43-.69.65-.09-.08-.19-.15-.28-.23 0-1.59.04-3.19-.03-4.78-.02-.46-.36-.91-.56-1.37-.13.03-.27.06-.4.09 0-1.91 0-3.82 0-6.17-.86.63-1.44 1.06-2.1 1.55v6.51c1.8.66.53 2.14.93 3.02-.65.54-1.15.96-1.92 1.59 0-2.02.04-3.62-.03-5.21-.02-.46-.35-.91-.55-1.37-.12.03-.24.06-.36.09 0-1.23 0-2.47 0-3.7 1.81-.48.45-2.03 1.16-3.1.38-.4 1.8.75 1.75-.93h2.8c.75-.71-.65-2.3 1.22-2.28 0-1.25 0-2.4 0-3.63.32-.08.6-.14.87-.21.19-1.92.19-1.92-.82-2.18 0-.53 0-1.08 0-1.42.46-.46.82-.82 1.35-1.34h1.53c.55-1.1-.27-.97-.93-.98 0-.7 0-1.35 0-2.1.34-.03.68-.06 1.1-.1 0-1.96 0-3.86 0-5.89.65-.04 1.23-.07 1.9-.11.02-.31.04-.6.06-.89h1.6c.52.63.94 1.13 1.56 1.88-.97 0-1.52 0-2.02 0-.68 1.04.56 2.59-1.11 3.4v4.38c.47.47.83.83 1.39 1.38h1.44c0 1.19.05 2.31-.03 3.41-.03.32-.46.61-.9 1.15v.9c-.45.53-.71.88-1.01 1.19-.12.12-.31.28-.44.26-.18-.03-.35-.21-.49-.35-.25-.25-.49-.53-.78-.74-.6-.42.52-1.75-1.09-1.76v3.69c-.43.09-.79.17-1.2.26v2.92c.33.05.67.1 1.12.17v2.69c.11.08.22.15.33.23.64-.63 1.27-1.25 2.05-2.02h1.32c.23 1.54 1.38.75 2.26.95.03-.63.06-1.17.09-1.72.1.04.2.07.31.11.21-.46.55-.9.59-1.38.09-.95.03-1.91.03-2.94h1.63c.34.37.68.74 1.21 1.33v1.61c-.3.07-.58.13-.88.2v2.43c.4.35.74.64 1.07.93-.06.11-.12.22-.18.33-.58.03-1.17.06-1.81.09v8.01c1.4-.01.77 1.08.91 1.69zm.97-35.67c0-1.3 0-2.6 0-4.01.67.02 1.24-.13.95-.99h1.64c.55.43.9.67 1.21.97.14.14.3.48.24.56-.42.55-.9 1.06-1.38 1.56-.08.08-.28.04-.5.07v1.84c-.78 0-1.47 0-2.16 0zm5.92 21.06v1.81c-.1-.03-.21-.06-.31-.1-.2.46-.52.9-.56 1.37-.08 1.07.01 2.16-.05 3.24-.02.28-.37.54-.65.92-.78-1.62.55-3.4-1.23-4.65 0-.38 0-.86 0-1.07.41-.5.79-.81.89-1.18.04-.17-.49-.48-.86-.83 0-1.02 0-2.21 0-3.8.71.59 1.2 1 1.87 1.55.51.69-.87 2.19.9 2.74zm-4.91 5.9h1.08v7.1c-.39 0-.7 0-1.08 0 0-2.36 0-4.7 0-7.1zm.1 11.92c-.17-1.06-.17-1.06 1.97-.85v.85c-.66 0-1.32 0-1.97 0zm2 2.11c0-.69 0-1.39 0-2.08h.79c.38 1.79.3 2.05-.79 2.08zm2.82-8.18c-.57 0-1.13 0-1.79 0 0-.5 0-1.04 0-1.58.58-.48 1.07-.9 1.79-1.5zm-2.78-22.81c0-.61 0-1.24 0-1.96h1.8c.01.58.12 1.18.98.87.02 1.42-.58 1.63-2.78 1.09zm4-8.97c-.07 0-.16.24-.2.37-.04.11.01.31-.05.34-.2.09-.53.24-.62.16-.45-.4-.86-.85-1.23-1.33-.04-.05.23-.37.39-.54.24-.27.51-.52.91-.93h1.77c-.23.74.78 1.92-.97 1.93zm3.9 24.82c-.65 0-1.22 0-2.17 0 .41-.48.67-.79.93-1.09.07.04.14.09.2.13 0-.55 0-1.1 0-1.72-.26-.06-.55-.13-.87-.21 0-.63 0-1.23 0-1.91.27-.09.58-.19.92-.3 0-.56 0-1.08 0-1.71.61-.04 1.19-.07 1.69-.1.82-.86-.7-2.48 1.16-3.01 0-.89 0-1.83 0-2.87.41-.04.74-.07 1.15-.1v5.88c-.33.08-.72.17-1.14.27v1.32c-.67.76-1.16 1.31-1.88 2.12.01.83.01 2.02.01 3.3zm3.02 13c-.36.03-.7.06-.75.07-.41.57-.68.94-.94 1.31-.11-.06-.22-.12-.33-.18 0-1.29 0-2.59 0-3.96h2.02zm4.82 5.89c-1.6.34-1.71.3-2-.77-.84 0-1.71 0-2.71 0 0-.71 0-1.25 0-1.87h3.5c.34.38.68.75 1.21 1.33zm-.06-31.36c.07-.12.14-.23.2-.35h1.72c.36.39.66.72.96 1.04.12-.06.25-.13.37-.19 0-.94 0-1.87 0-2.81.43 0 .97-.22.98.59 0 .11.62.36.68.3.5-.55.94-1.15 1.46-1.82h1.83v7.22c-.52-.49-.83-.77-1.34-1.25-.61 0-1.56 0-2.58 0-.06-.4-.11-.74-.17-1.14-.54 0-1.09 0-1.73 0-.37.19.28 1.6-1.07.96 0-.59 0-1.22 0-1.65-.53-.36-.92-.63-1.31-.9zm2.24 7.4c0-.84 0-1.71 0-2.67h1.87v7.82c-1.61.05-.43-1.25-.81-1.5-.74-.63-1.3-1.1-1.94-1.64-.14-1.75-.14-1.75.88-2.01zm-.91 14.18c0-.69 0-1.28 0-2.33.45.41.71.62.93.86.18.19.33.41.49.61.19.23.38.47.71.86-.92 0-1.52 0-2.13 0zm.99 11.68c0-.36 0-.99 0-1.7.59-.03 1.13-.05 1.76-.08.07-.28.14-.57.22-.88h1.67c.35 1.78.29 1.96-.78 2.26v1.72c-.58.03-1.16.05-1.51.07-.51-.51-.86-.87-1.36-1.39zm2.89 1.35h2.09v.98c-.65 0-1.31 0-2.09 0 0-.35 0-.66 0-.98zm5.02 2.06v2c-.71 0-1.35 0-1.99 0 0-.62 0-1.24 0-1.86-.09.04-.18.07-.27.11-.21-.43-.42-.87-.62-1.3h2.43c.44-.47.73-.79 1.03-1.11.1.08.2.15.29.23-.16.67.68 1.72-.87 1.93zm.56-37.05c-.16-.2-.39-.34-.59-.51.25-.22.49-.45.74-.67.59-.36-.41-1.69 1.17-1.72v1.84c.41.05.74.1 1.14.15v1.79c-.66 0-1.29 0-1.9 0-.19-.29-.34-.61-.56-.88zm2.46 26v1.05c-.37 0-.7 0-1.05 0-.26-.97.02-1.35 1.05-1.05zm0 37.04c-.39 0-.71 0-1.08 0 0-.39 0-.71 0-1.08h1.08zm2.83 2.89c-.54 0-1.09 0-1.77 0 0-.63 0-1.17 0-1.71.7-.1 1.81.95 1.77 1.71zm-2.05-26.45c.03-.13.06-.26.1-.38-.62 0-1.24 0-1.95 0-.02-.4-.04-.73-.07-1.13h3.1v2.06c-.39-.18-.78-.37-1.18-.55zm2.05-15.52c-.25 0-.54 0-.83 0 0-.55 0-1.1 0-1.71-.32-.12-.63-.22-.92-.33 0-2.98 0-5.92 0-8.92h1.86c0 1.93-.04 3.87.03 5.81.02.46.37.91.56 1.37.12-.03.23-.07.35-.1v1.87c-1.52-.01-.73 1.2-1.05 2.01zm1.03 13.59c0 .14-.48.28-.86.5 0-1.76 0-3.3 0-4.83.84-.04.84-.04.97 1.71.27.06.55.13.87.2v1.8c-.41.06-.98-.19-.98.62zm3.08 1.47c-.63 0-1.28 0-2.06 0 0-.69 0-1.38 0-2.07h2.06zm2.92 3.21c-.44-.35-.68-.55-.92-.75-.25-.22-.5-.44-.91-.79 0-.3 0-.84 0-1.15.61-.7 1.07-1.23 1.54-1.76.1.09.2.18.29.28zm.5-46.49c-.48.71-.8 1.18-1.11 1.64-.39 1.5-.39 1.5.61 1.76.01.25.03.52.03.79.01.28 0 .55 0 .56-.52.52-.88.87-1.36 1.35-.31 0-.86 0-1.46 0 0-1.24 0-2.42 0-3.61.11.03.21.06.32.09.19-.46.53-.9.56-1.37.08-1.3.04-2.6.05-3.91.41.19.81.38 1.22.56-.04.11-.09.22-.13.34h1.25c.59.51 1.02.87 1.44 1.24.09-.06.17-.12.26-.17v2.06c-.34 0-.68 0-.9 0-.29-.48-.52-.89-.78-1.33zm.52 16.17c0-.64 0-1.15 0-1.76h2.06v1.76c-.66 0-1.31 0-2.06 0zm.05 16.77c0-1.33 0-2.96 0-4.64h1.11v1.69c.14-.03.28-.06.41-.1.19.46.5.9.54 1.37.09.95.03 1.91.03 3.21-.78-.56-1.33-.97-2.09-1.53zm8.01 11.23c-2.17.44-2.88.28-3.18-.81-.4 0-.83 0-1.26 0-.44 0-.87 0-1.11 0-.42-.58-.74-1.04-1.07-1.5-.07.04-.14.08-.21.13 0-.55 0-1.09 0-1.64.09-.08.17-.15.26-.23.63.62 1.27 1.24 2.06 2.01h1.26c.64-1.81 2.12-.52 3.25-1.05zm1.95-5.57c-.71-.6-1.2-1.01-1.84-1.55 0-.51 0-1.1 0-1.56.61-.52 1.12-.94 1.84-1.54zm2.05-24.29c0-1.35 0-2.64 0-4h2.06v1.74c.36.08.64.15.97.22v2.04c-.99 0-1.97 0-3.03 0zm3.92 31.22c-.67-.56-1.14-.96-1.82-1.53 0-.48 0-1.07 0-1.75h1.82zm3.14-26.23c-.67 0-1.29 0-2 0-.05-.32-.1-.65-.17-1.1-.55-.03-1.13-.05-1.82-.09 0-1.28 0-2.53 0-3.78h2.82v2.79c.45.05.78.08 1.18.12-.01.7-.01 1.36-.01 2.06zm1.9 28.21c-.43-.46-.78-.67-.85-.95-.11-.4-.03-.84-.02-1.27h.87zm-.9-3.78v1.53c-.27 0-.54 0-.94 0 0-.69 0-1.35 0-2.02 0-.63 0-1.27 0-2.36.48.42.73.61.96.84.12.12.2.29.31.42.21.24.43.47.65.71-.28.25-.55.49-.98.88zm9.92-24.32h1.06v7.82c-.38 0-.68 0-1.06 0 0-2.61 0-5.19 0-7.82zm-2.9-2.31c-1.87.2-1.87.2-1.87-.84.62.25 1.65-.66 1.87.84zm-3.22 8.2c-.61 0-1.19 0-1.75 0-.09-.85.91-2.01 1.75-2.03zm2.22 20.36v3.61c-.69 0-1.34 0-2.09 0-.02-.3-.04-.63-.07-1.03.4-.05.74-.09 1.16-.15 0-1.92 0-3.82 0-5.7.9-.23.9-.23 1.05 1.64.35.31.62.56.9.8-.25.21-.5.43-.95.83zm1.87-12.25c-1.57-.49-.67-1.68-.89-2.44-.17-.63.11-1 .89-.69zm3.1 5.75c-.33.36-1.64-.32-1.11 1.04-.71 0-1.25 0-1.87 0 0-1.65 0-3.26 0-4.97h1.33c.61.51 1.02.84 1.65 1.37zm.02-7.87c-.34.02-.67.05-1.08.08 0-1.05 0-2.03 0-3.06h1.08zm2.02 9.01h2.07c-.41.51-.67.85-.94 1.18-.58.45.41 1.71-1.13 1.93 0-1.17 0-2.11 0-3.11zm.76 9.06c.52.05 1.34-.27 1.03.89-.53 0-1.08 0-1.73 0-.29-.75.04-.96.7-.89zm2 5.99c-.3 0-.59 0-.88 0 0-.34 0-.68 0-1.07-.34-.08-.63-.14-.94-.21 0-.59 0-1.13 0-1.75h1.81c.01.97.01 1.94.01 3.03zm.02-21.1c-.33-.05-.67 0-.82-.15-.4-.39-.72-.86-1.04-1.32-.05-.07.05-.33.15-.4.5-.38 1.02-.72 1.71-1.19zm.01-8.09c-.27.09-.57.19-.92.31v3.54c-.65.27-.98.2-.97-.58.02-1.28.01-2.56.01-3.64.62-.69 1.1-1.22 1.59-1.76.1.09.19.17.29.26zm-14.95 144.1c1.62.16.84 1.22 1.18 2.01-1.74-.15-.77-1.23-1.18-2.01zm29.18-76.38c.02-.25.38-.48.58-.72.11.1.21.2.32.3v4.17c-.46-.43-.88-.64-.9-.88-.08-.95-.07-1.91 0-2.87zm-1.03-4.63v2.03c-.69 0-1.34 0-1.99 0-.14-.99.87-2.06 1.99-2.03zm-11.01-60.94v3.04c-.27 0-.53 0-.79 0-.45-2.1-.24-3.01.79-3.04zm.03 3.07c.43 0 .95-.21.99.59.01.18.49.35.88.6v3.42c1.6.23.81 1.38.75 2.43-.24-.21-.48-.41-.72-.62-.26-.22-.52-.43-.94-.78 0-.4 0-1.03 0-1.66-.13.03-.27.06-.4.09-.19-.46-.5-.9-.55-1.37-.09-.88-.02-1.8-.01-2.7zm-.02 9.4c0-.43 0-.87 0-1.29.88-.2.88-.2 1 1.2.75.86 1.6 1.44 1.77 2.17.09.41-.95 1.07-1.48 1.62-.11-.07-.22-.14-.32-.21 0-.47.08-.95-.03-1.39-.09-.34-.41-.62-.63-.93-.1.04-.2.08-.3.13-.01-.45-.01-.87-.01-1.3zm4.96 19.33c-.4 0-.71 0-1.07 0 0-.6 0-1.14 0-1.78.32-.03.65-.06 1.07-.1zm-1.1-6.01c0-.6 0-1.15 0-1.38-.56-.56-.91-.92-1.42-1.44-.58 0-1.41 0-2.23 0-.21-.95-.21-.95.75-.96.59-.01 1.19 0 1.87 0 0-1.03 0-1.97 0-3.01 1.59.02.8-1.2 1.12-1.97.29-.01.63-.03 1.04-.05.03.62.06 1.17.09 1.76 1.61.18.65 1.39 1.02 2.25-.45.03-.75.05-1.04.08v2.4c.81.81 1.44 1.44 2.06 2.07-.08.09-.15.17-.23.26-.98-.01-1.96-.01-3.03-.01zm3.17 5.12c-.13-1.88-.13-1.88.9-1.8-.3.58.64 1.66-.9 1.8zm-1.05 51.89c-.28.1-.59.21-.93.33v1.66c-.37.04-.7.08-1.13.13 0-2 0-3.94 0-5.97.32-.02.65-.03 1.11-.05v2.04c1.41.02.91 1.02.95 1.86zm6.94-5.69c.03.32-.34.68-.65.98-.69.42.43 1.77-1.18 1.75 0-1.24 0-2.42 0-3.69-.43-.09-.79-.17-1.23-.26 0-.63 0-1.26 0-1.79-.62-.66-2.03.48-2-1.17-.59-.03-1.14-.05-1.86-.09 0-1.52-.05-2.96.04-4.39.02-.31.48-.6.92-1.11 0-.2 0-.72 0-1.33h1.8c.62.92-.63 2.48 1.06 3.3v1.25c.8.59 1.42 1.05 2.16 1.6v2.71c1.59.25.86 1.44.94 2.24z"/><path d="m127.99 85.98h.03c0-.01 0-.02 0-.03z"/><path d="m67.05 35.06c-.01 0-.02.01-.03.01v.02z"/><path d="m154.14 216.4c.01-.1-.1-.29-.14-.29-.75.08-1.05-.37-1.27-.99-.03-.07-.42-.01-.67-.01v2.85c-.88 0-1.8-.03-2.71.01-.72.04-1.35.02-1.29-.95-.69 0-1.28 0-2.31 0 .45.56.72.89.99 1.22.08-.04.15-.09.23-.13v2.95c1.45-.05 3 .43 4.19-.92.15-.17.61-.07.95-.1-.02-.34-.04-.7-.06-1.06.71-.22 1.57.07 2-.94.14-.32 1.05-.29 1.05-1.04-.4-.05-1.01.21-.96-.6z"/><path d="m155.1 217.01h.03c0-.01 0-.03 0-.04-.01 0-.02 0-.03.01.01.01 0 .02 0 .03z"/><path d="m86.95 216.06h.03c0-.01 0-.02.01-.03-.01 0-.03 0-.04 0s-.01.02 0 .03z"/><path d="m207.02 107.17v2.73c.39.04.74.08 1.11.12.06 1.04.12 2.03.19 3.06.35-.02.65-.04.92-.06 0-2 0-3.95 0-5.86-.77.01-1.5.01-2.22.01z"/><path d="m43.54 78.51c-.01 0-.02 0-.04-.01 0 .02.01.04.01.06.01-.01.01-.02.02-.02.01-.01.01-.02.01-.03z"/><path d="m200.71 80.89c-.07-.06-.14-.11-.21-.17v.18c.07 0 .14-.01.21-.01z"/><path d="m200.5 80.72c0-.02 0-.04 0-.06-.01 0-.02 0-.04.01v.03c.01 0 .03.01.04.02z"/><path d="m200.5 80.94c0-.01 0-.03 0-.04-.01 0-.02 0-.03 0s.03.04.03.04z"/><path d="m42.54 91.21v.05c.01 0 .02 0 .04-.01 0-.01 0-.02 0-.03-.02 0-.03-.01-.04-.01z"/><path d="m42.4 91.16c.05.02.1.04.15.05 0-.06 0-.11 0-.17-.06.04-.1.08-.15.12z"/><path d="m62.45 195.63c0-.07.01-.14.01-.21-.07 0-.14.01-.21.01.07.06.14.13.2.2z"/><path d="m189.47 168.75c.06-.07.11-.14.17-.21-.06 0-.12 0-.18 0 0 .07 0 .14.01.21z"/><path d="m189.64 168.54h.06l-.04-.03c-.01.01-.01.02-.02.03z"/><path d="m189.7 168.54c0-.02-.01-.04-.01-.06-.01.01-.02.02-.03.03 0 0 .04.03.04.03z"/><path d="m32.28 122.2c.06.07.13.13.19.2.01-.06.02-.13.03-.19-.07 0-.14-.01-.22-.01z"/><path d="m32.47 122.4c0 .02-.01.04-.01.06.01 0 .02 0 .04-.01 0-.01 0-.02 0-.03-.01 0-.02-.01-.03-.02z"/><path d="m156.52 216.53c.02 0 .04.01.06.01 0-.02-.01-.04-.01-.06-.01.01-.01.01-.02.02s-.02.02-.03.03z"/><path d="m109.3 11.54c-.01 0-.02 0-.04 0v.03c.01.01.04-.03.04-.03z"/><path d="m110.93 227.79c0-.07.01-.14.01-.21-.07 0-.14.01-.21.01.07.06.13.13.2.2z"/><path d="m123.69 228.5c-.01 0-.02 0-.02 0 0 .01 0 .02-.01.04z"/><path d="m123.66 228.54h.06c-.01-.01-.02-.02-.03-.03 0-.01-.03.03-.03.03z"/><path d="m123.89 228.75c0-.07.01-.14.01-.21-.06 0-.12 0-.18 0 .06.07.11.14.17.21z"/><path d="m123.9 228.54h.04c-.01-.01-.02-.02-.03-.03-.01 0-.01.01-.01.03z"/><path d="m92.9 168.11s.03-.04.03-.04c-.02 0-.03 0-.05 0 .01.01.02.02.02.04z"/><path d="m91.06 168.05c-.01-.01-.01-.02-.02-.03-.01 0-.01 0-.02 0z"/><path d="m118.14 86.91v.03h.03z"/><path d="m91.98 166.85c0-.6 0-1.19 0-1.66-.68-.53-1.29-.98-1.84-1.48-.04-.04.27-.47.43-.71.17-.26.37-.51.69-.96-.92 0-1.44 0-1.98 0-.12-.34-.22-.65-.26-.76-1.11-.66-2.65.7-3.24-1.2-1.16 0-2.35 0-3.54 0-.05-.42-.1-.76-.15-1.16-1.02 0-1.97 0-2.58 0-.87-.87-1.54-1.54-2.4-2.4 0-.23 0-.78 0-1.2-.74-.55-1.36-1.01-2.16-1.59 0-.4 0-1.03 0-1.7-1.6.01-.65-1.23-.84-1.55-1.89-1.33-.56-3.1-1.35-4.37-.33-.34-.64-.72-.64-1.09-.04-3.32-.04-6.64 0-9.96.01-.46.36-.92.56-1.37.11.03.23.07.34.1.03-.55.05-1.1.08-1.68 1.57 0 .62-1.25 1.04-1.9.24-.06.52-.13.88-.21 0-.69 0-1.31 0-1.97.42-.05.76-.09 1.07-.12.29-.77-.47-1.98 1.02-1.97.03-.64.06-1.19.09-1.74.09-.07.19-.13.28-.2.3.31.6.63 1.06 1.11h1.38c-.03.14-.05.29-.08.43.38.17.74.45 1.13.48.99.07 1.99.02 2.82.02.59-.7 1.07-1.26 1.67-1.97h2.65c.07-.43.12-.76.19-1.17h1.43c.98-1.04 1.79-1.89 2.72-2.87h1.44c.57-.67 1.04-1.24 1.65-1.95h2.42c.06-.42.11-.76.14-.98 1.08-.67 2.68.72 3.27-1.11h1.46c.54.72 1.03 1.36 1.55 2.05h1.82c0-1.02 0-1.97 0-2.74.41-.31.68-.52.95-.72-.29-.28-.58-.56-.91-.87 0-2.1 0-4.29 0-6.49.09.04.18.08.27.13.29-.4.53-.83.86-1.18.54-.57 1.15-1.08 1.7-1.64.59-.59 1.15-1.2 1.95-2.03 0-.19 0-.74 0-1 .81-.62 1.42-1.09 2.15-1.66 0-.49 0-1.12 0-1.52.7-.6 1.23-1.06 1.91-1.64.17-.52-.51-1.69.89-1.7 0-.72 0-1.34 0-1.97-.09-.07-.19-.14-.28-.21-.62.74-1.24 1.49-1.93 2.32-.38 0-.9 0-1.15 0-.76.7-1.33 1.23-2.08 1.92-.27 0-.79 0-1.15 0-.58.68-1.05 1.24-1.66 1.96-.37 0-.91 0-1.45 0-.07.43-.12.77-.18 1.11-.08-.07-.17-.13-.25-.2-.39.36-.78.72-1.33 1.22-.26 0-.77 0-1.34 0-.07.32-.14.61-.22.97-.6 0-1.15 0-1.7 0 .03.15.05.29.08.44-.38.17-.74.43-1.13.48-.67.08-1.37-.05-2.03.05-.47.07-.92.36-1.37.56.03.11.06.22.09.32-1.27 0-2.54 0-3.81 0-.07-.08-.14-.16-.21-.24.87-.81 1.73-1.62 2.79-2.61h.93c1.4-1.46 2.61-2.73 3.9-4.07h1.5c.07-.32.14-.61.23-1.01h1.8c0-.64 0-1.16 0-1.68.07.04.15.08.22.12.34-.46.67-.92 1.01-1.37.02.04.04.07.06.11.39-.36.78-.71 1.34-1.22h1.33c.07-.32.14-.61.22-.96h1.71c.11-1.71 1.45-.56 2.18-1.11.04-.18.11-.46.19-.82h1.74c.01-1.49 1.08-.84 1.73-.92.78-.08 1.58-.02 2.39-.02 0-.48 0-.83 0-1.18-.37-.03-.74-.05-1.14-.08 0-.63 0-1.18 0-1.76.4-.08.77-.15 1.09-.21 0-.63 0-1.18 0-1.44-.54-.41-.89-.67-1.25-.94.06-.1.13-.2.19-.29.37-.07.73-.14 1.05-.2 0-.72 0-1.34 0-2.09-.73 0-1.38 0-2.03 0 0-.67 0-1.22 0-1.82h1.7c.75.74 1.39 1.36 2.02 1.98.09-.08.17-.16.26-.23 0-.55 0-1.1 0-1.62-1.87-.61-.35-2.25-1.18-3.09-.33-.37-.66-.74-.96-1.09-.6 0-1.22 0-1.91 0v1.97c-.08-.04-.16-.08-.24-.12-.33.38-.66.75-1.11 1.26-1.1 0-2.37 0-3.62 0v1.79c.39.04.73.08 1.07.12l.18.27c-.53.46-1.06.92-1.79 1.57-.26.01-.81.04-1.04.05-.64.84-1.11 1.44-1.63 2.13-.84 0-1.75 0-2.65 0-.57 1.85-1.99.53-2.76.94-.6-.7-1.07-1.27-1.55-1.83-.91 0-1.86 0-3.12 0 .61.72 1.05 1.24 1.55 1.82 1.83.06 1.83.06 1.65.93-.95 0-1.9 0-2.6 0-.61-.68-1.07-1.21-1.68-1.89-.34 0-.89 0-1.44 0 .04-.08.08-.16.12-.24-.38-.33-.75-.66-1.26-1.1 0-.79 0-1.73 0-2.66-.73 0-1.36 0-1.81 0-.54.66-.92 1.14-1.31 1.62.08.09.16.18.24.27h1.72c.18 1.71-2.04 1.66-2 3.11-.94 0-1.77 0-2.25 0-1.03.86-1.82 1.52-2.7 2.26v1.55c-.36.26-.65.45-.93.65.22.19.49.35.65.59.16.23.22.53.38.94-.77 0-1.32 0-1.51 0-.61.56-.98.91-1.46 1.36v1.36c-.12-.03-.24-.06-.35-.09-.19.41-.64 1.06-.51 1.2.48.56 1.14.95 1.75 1.42v1.67c-.64.03-1.19.05-1.78.08-.04.66-.07 1.24-.1 1.8-.43.07-.77.12-1.07.17-.07.41-.13.75-.21 1.15-.94 0-1.8 0-2.75 0v1.54c-.71.61-1.28 1.09-1.98 1.69v1.47c-.11.09-.21.18-.32.27-.59-.54-1.19-1.09-1.79-1.63-.23-.21-.49-.4-.98-.79v5.64c-1.68 1.97-.44 3.98-1.11 5.64-1.26 0-2.53 0-3.79 0-.05-.72 1.03-1.81 1.99-2.05 0-.63 0-1.25 0-1.88-.47-.24-1.54.15-.96-1.12h1.91c0-.67 0-1.22 0-1.77-.13.04-.27.07-.4.11-.17-.39-.47-.77-.48-1.16-.05-1.99-.02-3.97-.02-6.04-.49.05-.83.09-1.2.13v2.6c-.12-.03-.24-.07-.37-.1-.2.46-.52.9-.57 1.37-.09.95.04 1.92-.05 2.87-.05.47-.38.92-.58 1.38-.12-.03-.24-.07-.36-.1v3.72c-.34.12-.65.23-.9.32-.19.8.43 1.9-.82 1.88-.71.95.72 2.47-1.14 2.93v1.02h2.66c.18.38.25.78.48.94.81.56.83.53 0 1.03-.11.07-.18.22-.27.32-.59.63-1.19 1.26-1.9 2.01v1.41c.37.33.65.57.92.82-.29.24-.58.47-1 .82v6.63c-1.06 0-2.03 0-3.08 0 0 4.35.02 8.58-.03 12.8 0 .46-.37.91-.56 1.37-.13-.03-.27-.06-.4-.1v9.84c-.66.04-1.24.08-2.17.14.36.42.58.64.76.88.17.23.46.68.42.72-.55.5-1.16.94-1.84 1.47v.9h1.96v1.98h1.85v1.51c1.82 1.25.49 3.02.96 4.02.88.67 1.53 1.14 2.15 1.65.22.18.37.46.55.69.23-.3.47-.59.77-.98.8.43 2.21-.8 2.73 1.01h1.86c-.05.12-.1.24-.14.36.35.18.93.58 1.01.5.52-.54.92-1.18 1.35-1.77h1.75v3.01c.1-.07.2-.13.29-.2.4.35.8.7 1.39 1.21h1.3c.07.32.14.6.21.91h1.69c.07-.09.15-.17.22-.26-.32-.32-.64-.64-.98-.99 0-2.11 0-4.33 0-6.63h1.8c.03-.41.06-.75.07-.81.82-.59 1.38-.99 2.15-1.54 0 1.32.07 2.28-.03 3.23-.05.47-.39.92-.6 1.38-.1-.04-.2-.07-.31-.11v1.53c1.96.57.28 2.34 1.14 3.27h2.42c.51-.67.98-1.27 1.63-2.12.01 0 .35-.03.66-.05.52-1.27-.67-.74-1.05-1.06 0-1.24 0-2.46 0-3.68h2.05c.17-.62-.15-1.61 1.05-1.03v1.83c.12-.03.24-.07.36-.1.2.39.4.79.6 1.18.61.02 1.23.03 1.84.05-.18-.44-.36-.88-.54-1.32-.07-.03-.19 0-.31.03zm10.12-54.25c.64-.74 1.1-1.27 1.56-1.8.09.06.19.11.28.17v1.7c.45.42.79.72 1.12 1.03-.06.09-.13.19-.19.28-.89 0-1.78 0-2.77 0 0-.64 0-1.15 0-1.38zm-9.07-2.53h1.1v1.98c-.36.03-.69.05-1.1.08 0-.74 0-1.39 0-2.06zm-1.92-17.09h3v.74c-.61.47-1.03.79-1.44 1.12.05.07.09.14.14.2-.54 0-1.09 0-1.7 0 0-.7 0-1.35 0-2.06zm-5.98 3.84c.67.52 1.19.93 1.78 1.38v2.83c-.6 0-1.14 0-1.78 0 0-1.27 0-2.57 0-4.21zm-6.04 18.39c.82-.52 1.46-1.16 2.02-1.99.36-.53 1.21-.7 1.75-1.15.24-.2.25-.68.39-1.1.5-.02 1.05-.05 1.48-.07.55-.65 1.02-1.21 1.59-1.89h1.71c.08-.32.15-.6.23-.92h3.71v1.67c-.1-.04-.21-.07-.31-.11-.21.46-.55.9-.59 1.38-.09.95-.03 1.91-.03 2.77.38.25.66.44.95.63-.26.2-.54.38-.76.62-.28.32-.5.69-.75 1.04-.12-.06-.24-.11-.36-.17-.03-.58-.06-1.17-.09-1.75-.09-.08-.18-.16-.27-.23-.64.62-1.27 1.23-2.09 2.02-.29 0-.88 0-1.56 0-.09 1.56-1.25.86-2.03.96-.64.09-1.28.07-.98-.97-1.44 0-2.71 0-4.04 0 .02-.31-.07-.68.03-.74zm-.7-6.13c-.46.43-.67.78-.94.85-.4.11-.84.03-1.27.02 0-.27 0-.53 0-.87zm-3.36.9h1.11v3.02c-.37.03-.7.06-1.11.09 0-1.04 0-2.02 0-3.11zm-8.88 38.25c.75-.29.96.04.89.7-.05.52.27 1.34-.89 1.03 0-.54 0-1.08 0-1.73zm-1.54 12c-.14-.09-.28-.18-.41-.27 0-.94 0-1.88 0-3.23.44.37.69.56.92.77.32.29.64.58.95.88-.31.29-.66.56-.93.89-.22.28-.36.64-.53.96zm3.35 5.58c-.57.49-1.09.93-1.82 1.56 0-.95 0-1.58 0-2.26-.37-.12-.68-.22-.99-.32 0-.57 0-1.09 0-1.67.3-.07.59-.14.7-.17.64-.55-.47-1.9 1.17-1.84v2.75c.35.08.64.14.95.21-.01.64-.01 1.23-.01 1.74zm.97-8.95c-.63.28-.96.19-.94-.59.02-1.2-.03-2.4.03-3.6.01-.28.36-.54.55-.81.12.1.23.19.35.29.01 1.56.01 3.11.01 4.71zm1.18-30.91c-.33.05-.67.11-1.15.18 0 .4.08.85-.03 1.25-.07.26-.4.46-.62.69-.09-.07-.18-.14-.26-.22 0-1.19 0-2.38 0-3.19.51-.65.84-1.07 1.31-1.67h.75zm-1.1-4.05c0-.6 0-1.14 0-1.78.33-.03.66-.06 1.06-.09v1.88c-.39-.01-.7-.01-1.06-.01zm-.04-2.85c.05-.32.07-.81.15-.82.58-.08 1.19-.11 1.77-.04.11.01.18.49.3.87-.87-.01-1.46-.01-2.22-.01zm3.17 44.89c0-.94 0-1.8 0-2.78 1.24-.32.95.62.86 1.1-.1.58.66 1.7-.86 1.68zm2.8 0c-.32-.05-.81-.05-.82-.13-.09-.5-.12-1.03-.05-1.53.02-.13.48-.19.87-.33zm12.01-1.83v4c-.27 0-.53 0-.79 0-.5-2.36-.22-3.97.79-4z"/><path d="m64.18 118.13c0-.01 0-.02 0-.03-.01 0-.02 0-.03 0z"/><path d="m58.18 160.13c0-.01 0-.02 0-.03-.01 0-.02 0-.03 0z"/><path d="m57.36 115.01c.37-.26.75-.51 1.12-.76-.03-.07-.07-.15-.1-.22h1.23c.89-.85 1.59-1.53 2.42-2.33 0-.39 0-.98 0-1.62.32-.07.61-.14.96-.22 0-.6 0-1.15 0-1.69.44-.09.8-.17 1.17-.25 0-1.65-.04-3.21.03-4.76.02-.46.36-.91.55-1.37l.33.09c0-1.27 0-2.53 0-3.8-.13.04-.26.07-.39.11-.17-.38-.44-.76-.5-1.16-.09-.58-.02-1.19-.02-1.78-.13.05-.25.09-.38.14-.71-.72-1.41-1.44-2.33-2.38-.8 0-2.02 0-3.22 0-.07.41-.12.75-.19 1.15-.69 0-1.32 0-1.95 0l.12.24c-.38.33-.75.66-1.21 1.06v1.24c-.7.59-1.26 1.07-1.75 1.49-.63.99.8 2.54-1.13 3.12v4.76c-.42.05-.76.09-1.1.13-.06.12-.12.24-.18.36.4.26.81.52 1.33.85v5.21c.88.89 1.54 1.56 2.33 2.37.3.01.85.04 1.13.05.38.42.6.67.83.92.17-.2.33-.41.51-.6.12-.14.25-.25.39-.35z"/><path d="m126.98 116.96c-.63 0-1.17 0-1.77 0-.07.39-.13.76-.21 1.18-1.34 0-2.61 0-3.48 0-1.25 1.22-2.25 2.2-3.44 3.35v1.45c-.73 0-1.36 0-2.03 0-.04.42-.07.75-.11 1.2-.65 0-1.23 0-1.81 0-.06.12-.12.23-.18.35.34.29.67.58 1.07.92v1.15c-.5.51-.86.87-1.36 1.37-.3.01-.85.04-1.54.07.53 1.36-.7.7-1.13 1.04v1.55c-.82 1-1.92 1.26-1.98 2.52-.02.39-.44.76-.67 1.14-.09-.04-.17-.07-.26-.11v1.81c-.34.12-.65.23-.98.34v1.38c-1.55 1.5-3.36 2.44-4.33 4.49-.45 0-1.02 0-1.58 0v2.74c.09.07.18.14.26.21.3-.31.6-.61 1.09-1.12.42-.12 1.56.52 1.6-.94h2.05c-.39-.97.37-.93.97-1.05 0-.7 0-1.33 0-1.66 1.72-1.66 3.26-3.15 4.8-4.63.07.06.15.13.22.19 0-.6 0-1.19 0-1.65.67-.57 1.24-1.04 1.91-1.61 0-.37 0-.88 0-1.37.34-.16.67-.26.92-.46.7-.55.98-1.44 1.72-2.04.44-.36.86-.72 1.38-1.02.37-.21.57-.71 1.04-1.34 0-.16 0-.67 0-1.19.07.05.14.09.2.14.67-.73 1.35-1.47 2.02-2.2.5-.45 1.72.33 1.7-1.21h1.89c.12-.34.23-.65.33-.93.84.04 1.84-.46 1.87.9.63.03 1.17.06 1.83.1v2.05h1.07c.08-.4.15-.77.24-1.21h2.73c-.09-.85.52-1.89-.91-2-.03-.61-.06-1.15-.09-1.78-.62 0-1.17 0-1.75 0-.08-.36-.14-.64-.22-1-1.01 0-1.96 0-2.96 0-.05-.41-.08-.74-.12-1.12z"/><path d="m128.98 92.93s-.03-.03-.03-.03v.03z"/><path d="m126.74 95.1c-.43 0-.94 0-1.46 0 .05.07.1.14.15.21-1.09.98-2.19 1.95-3.46 3.09v1.66c-1.6-.02-.64 1.23-1.06 1.9-.23.05-.51.12-.87.2v1.7c-.12-.04-.24-.08-.36-.12-.19.35-.58.73-.54 1.05.19 1.48-.64 3.18.75 4.43.18.25.17.52.18.8.01.27.03.54.04.82.1-.05.21-.11.31-.16.28.44.56.88.87 1.36h3.85c0-.72 0-1.35 0-1.68 1.04-.99 1.89-1.79 2.87-2.72 0-.33 0-.85 0-1.13 1.74-1.34.51-3 .9-4.12-.42-.36-.67-.59-.93-.81-.24-.2-.49-.39-.98-.78v3.06c-.09-.06-.18-.12-.27-.17-.66.75-1.31 1.5-2.08 2.37-.36 0-.99 0-1.64 0 0-1.04 0-2.02 0-2.69.54-.41.89-.68 1.24-.95-.06-.11-.13-.23-.19-.34-.34-.03-.69-.05-1.03-.08-.06-.13-.13-.25-.19-.38.4-.26.79-.53 1.32-.88 0-.46 0-1.09 0-1.48.7-.6 1.23-1.06 1.96-1.68 0-.35 0-.93 0-1.5.68-.03 1.23-.06 1.42-.07.56-.54.9-.86 1.39-1.33 0-.42 0-1.08 0-1.74-.29 0-.57 0-.54 0-.65.86-1.12 1.47-1.65 2.16z"/><path d="m58.21 148.21v5.86h1.81c0-1.64 0-3.22 0-4.71-.33-.27-.61-.51-.89-.75.28-.24.57-.49 1.07-.91-.44-.53-.93-1.13-1.45-1.7-.06-.06-.4.03-.52.14-.37.36-.7.77-1.04 1.15-.64.98.35.77 1.02.92z"/><path d="m129.02 112.66c.63.53 1.06.89 1.59 1.34h1.41c0-1.72 0-3.31 0-4.94-.6 0-1.15 0-1.69 0 .04.07.08.14.13.21-.46.33-.92.65-1.44 1.02z"/><path d="m64.02 184.08c.13-.43.18-.82.37-1.13.16-.26.47-.43.72-.64-.3-.19-.59-.37-.98-.61 0-.47 0-1.02 0-2.02-.85.63-1.44 1.06-2.1 1.55-.24.6.53 1.81-.93 1.79v2h1.86c-.41-1.2.57-.81 1.06-.94z"/><path d="m60.1 119.51c-.01.3-.04.85-.06 1.4-.07-.04-.14-.09-.21-.13-.26.3-.53.61-.79.91.09.09.18.19.26.28.71-.15 1.77.52 1.87-.97h1.6c-.04-.07-.08-.15-.12-.22.46-.34.91-.67 1.49-1.1 0-.38 0-.96 0-1.54-.98 0-1.96 0-2.66 0-.52.52-.88.87-1.38 1.37z"/><path d="m64.18 118.13s-.03-.03-.03-.03v.03z"/><path d="m132.04 82.23c-.31-.07-.6-.14-.86-.2-.15-1.99-.15-1.99-.95-1.94v5.19c.69-.6 1.17-1.01 1.82-1.57-.01-.4-.01-.92-.01-1.48z"/><path d="m66.29 186.33c.27-.34.55-.67.98-1.2-.95 0-1.5 0-1.69 0-.61.54-.98.87-1.34 1.19v1.62h1.82c0-.58 0-1.16 0-1.74.08.04.15.09.23.13z"/><path d="m66.06 187.94v.03l.03-.03c-.01 0-.02 0-.03 0z"/><path d="m82.11 86.02c-.38 0-.71 0-1.08 0v3.98h1.08c0-1.39 0-2.66 0-3.98z"/><path d="m66.06 187.98h.03c0-.01 0-.02 0-.03s-.03.03-.03.03z"/><path d="m67.97 192.21c0-.89 0-1.4 0-1.94-.32-.11-.63-.22-1-.34 0-.68 0-1.3 0-1.95-.35 0-.62 0-.89 0v2.78c.39.34.66.59.95.82.26.19.53.35.94.63z"/><path d="m85.99 182.94s.03-.03.03-.03c-.01 0-.02 0-.03 0z"/><path d="m82.84 181.06c.6.71 1.03 1.22 1.57 1.85h1.58c0-.61 0-1.21 0-1.85-1.02 0-1.91 0-3.15 0z"/><path d="m70.2 199.67c.61.52 1.11.94 1.83 1.54 0-1.03 0-1.57 0-1.89-.65-.55-1.13-.96-1.83-1.56z"/><path d="m58.16 140.86c1.08-.05 1.22-.77.8-4.11-.39.5-.75.75-.77 1.02-.07.99-.03 1.99-.03 3.09z"/><path d="m72.11 173.24v3.51c.11.1.22.2.33.29.2-.25.54-.48.57-.74.07-.83.01-1.67.03-2.51.03-.82-.35-.83-.93-.55z"/><path d="m121 64.21c-.7 0-1.27 0-1.82 0v1.75h1.82c0-.61 0-1.15 0-1.75z"/><path d="m91.06 168.05s-.03-.03-.03-.03v.03z"/><path d="m89.2 169.88h1.83c0-.66 0-1.24 0-1.82-.61 0-1.22 0-1.83 0z"/><path d="m98.87 77.88c0-.58 0-1.15 0-1.74-.6 0-1.12 0-1.73 0-.02.8 1.09 1.84 1.73 1.74z"/><path d="m53.3 121.91h1.69c0-.68 0-1.23 0-1.77-.78-.02-1.82 1.1-1.69 1.77z"/><path d="m55.94 163.07c-.11-.06-.21-.13-.32-.19-.28.35-.54.98-.85 1.01-.81.07-.7.53-.68 1.02h1.84c.01-.7.01-1.27.01-1.84z"/><path d="m54.06 164.91s.03.03.03.03c0-.01 0-.02 0-.03-.01 0-.02 0-.03 0z"/><path d="m76.21 204.09v1.77c.78.01 1.81-1.11 1.69-1.77-.54 0-1.08 0-1.69 0z"/><path d="m89.2 160.04h1.87c-.05-.42-.08-.76-.12-1.09-.61 0-1.13 0-1.75 0z"/><path d="m58.18 160.13s-.03-.03-.03-.03v.03z"/><path d="m57.03 162.05c.41-.04.74-.06 1.11-.09 0-.66 0-1.24 0-1.82-.37 0-.74 0-1.11 0z"/><path d="m58.29 166.95c.01.06.51.05.8.08 0-.76 0-1.35 0-2.24-.41.18-.86.27-.87.4-.06.58-.01 1.18.07 1.76z"/><path d="m60.2 172.93c.01.07.51.08.82.12 0-.76 0-1.35 0-2.23-.4.15-.86.22-.87.35-.07.58-.03 1.18.05 1.76z"/><path d="m134.94 86.82c-.4.15-.86.22-.87.35-.06.58-.03 1.18.06 1.77.01.07.51.08.82.12-.01-.76-.01-1.36-.01-2.24z"/><path d="m79.1 206.07v1.97c1.26.3.83-.62.89-1.13.06-.57.09-1.21-.89-.84z"/><path d="m56.06 125.96c1-.02 1-.02.81-1.71-.93-.07-.93-.07-.81 1.71z"/><path d="m65.05 83.93c0-.65 0-1.2 0-1.73-1.16-.31-.84.51-.89 1.02-.07.67.14 1 .89.71z"/><path d="m48.17 107.21c-.2 1.8-.2 1.8.81 1.62.12-1.69.12-1.69-.81-1.62z"/><path d="m90.03 176.82c.1-1.78.1-1.78-.83-1.68-.17 1.7-.17 1.7.83 1.68z"/><path d="m78.15 197.06c-.14 1.88-.14 1.88.9 1.81-.3-.59.64-1.67-.9-1.81z"/><path d="m118.14 86.91s.03.03.03.03c0-.01 0-.02 0-.03-.01 0-.02 0-.03 0z"/><path d="m119.44 86.89c.28-.07.49-.42.95-.85-1.04 0-1.61 0-2.21 0v.87c.42.01.86.09 1.26-.02z"/><path d="m127.99 85.98s.03-.03.03-.03c-.01 0-.02 0-.03 0z"/><path d="m126.14 85.07c-.06.1-.12.21-.19.31.25.19.48.49.76.55.4.09.84.02 1.27.01 0-.29 0-.58 0-.88-.69.01-1.27.01-1.84.01z"/><path d="m194.02 101.09s-.03-.03-.03-.03v.04c.01 0 .02 0 .03-.01z"/><path d="m191.1 103.5v2.35c-.71.55-1.32 1.01-2.14 1.64 0 .58.06 1.46-.03 2.33-.05.47-.36.91-.55 1.37-.13-.03-.27-.06-.4-.09v2.6c-.42.36-.68.58-.94.8.28.25.55.49.9.81.12 1.55.12 1.55.96 1.5.03-.57.07-1.15.1-1.72.42-.07.76-.12 1.17-.19 0-.61 0-1.16 0-1.71.14.04.28.07.42.11.17-.38.48-.77.49-1.16.06-1.63.02-3.27.02-4.57.46-.52.7-.83.98-1.11.14-.14.35-.32.52-.3.15.02.28.27.43.41.23.21.48.41.76.65.47-1.02-.49-2.34 1.13-2.42 0-.59 0-1.11 0-1.69-.3-.07-.59-.14-.94-.22 0-.62 0-1.2 0-1.78-.32.11-.7.15-.92.36-.64.57-1.21 1.23-1.96 2.03z"/><path d="m172.14 184.11v.03h.03z"/><path d="m170.03 190.74c.23.15.68.21.88.08.39-.25.68-.67 1.23-1.24 0-1.58 0-3.51 0-5.45-1.01 0-2.02 0-3.06 0v5.51c.44.54.64.9.95 1.1z"/><path d="m184.18 131.97v.04s.03-.04.03-.04-.02 0-.03 0z"/><path d="m182.98 126.88c-.05-.12-.09-.23-.14-.35.27-.17.57-.3.8-.51.23-.2.41-.47.73-.86-1.35 0-2.32 0-3.28 0v2.7c1.65.13.54 1.45 1.07 2.18.17.04.46.11.82.19v1.8c.45-.02.83-.04 1.2-.06 0-1.62 0-3.23 0-4.87-.47-.08-.83-.15-1.2-.22z"/><path d="m181.9 115.31c.32.32.65.64 1.12 1.11v1.63c.43.07.76.12 1.16.18v5.79c.11.06.23.13.34.19.2-.27.54-.53.56-.81.07-.99.03-2 .03-2.99 0-1.78 0-3.56 0-5.36-1.11 0-2.06 0-3.01 0-.06.08-.13.17-.2.26z"/><path d="m151.99 196.14h.03c0-.01 0-.02 0-.03z"/><path d="m152.02 197.65c-.44.41-.93.66-.94.92-.07 1.79-.04 3.57-.04 5.4h1.85c0-2.65 0-5.23 0-7.83-.33 0-.6 0-.87 0z"/><path d="m159.11 196.12c.33-.02.66-.05 1.03-.08 0-2.43 0-4.77 0-7.1-.37 0-.74 0-1.11 0 .06.1.12.19.18.29-.34.4-.69.8-1.16 1.35v4.39c1.35-.53.7.68 1.06 1.15z"/><path d="m160.14 188.91v.03h.03z"/><path d="m173.7 182.81c.1.06.19.13.29.19.07.37.14.73.2 1.05h2.69c0-1.04 0-2.01 0-3.01-.62 0-1.17 0-1.56 0-.29.37-.5.64-.71.91-.28-.29-.55-.58-.83-.87-.48 0-1.02 0-1.61 0v3.02c.29 0 .57 0 .53 0 .46-.59.73-.94 1-1.29z"/><path d="m172.14 184.11s.03.03.03.03c0-.01 0-.02 0-.03-.01 0-.02 0-.03 0z"/><path d="m170.96 97.03c-.33.03-.68-.05-.82.09-.19.18-.19.57-.36.8-.19.25-.48.42-.73.63.29.19.59.37 1.02.65v2.79h3.77c.24-.37.41-.85.59-.86.8-.03.59-.55.59-.98-1.33 0-2.66 0-4.06 0 0-1.13 0-2.08 0-3.12z"/><path d="m175.02 100.14h.03l-.03-.03z"/><path d="m130.21 202.77c.67.56 1.14.96 1.84 1.54 0-2.64 0-4.85 0-7.52-.73.63-1.25 1.06-1.84 1.57z"/><path d="m184.13 166.33c1.09-.38 1.3-1.3.82-3.28-.63 0-1.25 0-1.96 0v4.43c-.5.59-.78.92-1.24 1.46h2.38c0-.91 0-1.77 0-2.61z"/><path d="m127.09 204.06v3.78c.6.5 1.11.92 1.81 1.51.05-1.03.08-1.69.11-2.37.41-.05.75-.09 1.11-.14 0-.62 0-1.17 0-1.47-.59-.46-1.03-.8-1.68-1.31-.2 0-.72 0-1.35 0z"/><path d="m144.05 192.17c-1.35-.18-1.45-2.14-3.02-2.04v2.81c.4.05.73.09 1.14.15v1.79h2.78c.06-.09.13-.19.19-.28-.34-.31-.68-.62-1.1-1 .01-.41.01-.93.01-1.43z"/><path d="m167.1 191.06c0-1.01 0-2.02 0-3.12-.92.22-2.06-.59-2.3.95-.57.03-1.11.05-2.09.09.61.82 1.04 1.4 1.54 2.08z"/><path d="m167.13 191.06c-.01 0-.02 0-.03 0v.03z"/><path d="m176.73 174c.15-.58.25-1.18.37-1.86h1.93c0-1.14 0-2.12 0-3.08-.71 0-1.34 0-2.04 0v1.66c-1.11.37-1.18.63-.89 3.29.21-.01.61.04.63-.01z"/><path d="m185.81 139.85c-.23.2-.65.39-.66.59-.04 2.86-.03 5.71-.03 8.59h1.78c.07-.08.15-.17.22-.25-.31-.32-.62-.65-1.06-1.11 0-2.35 0-4.94 0-7.53-.08-.09-.16-.19-.25-.29z"/><path d="m182.98 136.1c-.01 0-.02 0-.03 0v.03h.03c0-.01 0-.02 0-.03z"/><path d="m184.18 132.01h.03c0-.01 0-.03 0-.04.01 0-.03.04-.03.04z"/><path d="m184.83 136.33c.33.27.67.54 1.2.97 0-1.67 0-2.94 0-4.08-.36-.22-.86-.38-.86-.54 0-.78-.53-.61-.96-.66v2.82c-.54.08-.88.13-1.23.18v1.08h1.98c-.04.08-.09.16-.13.23z"/><path d="m167.06 194.9h.04s-.04-.03-.04-.03c-.01 0-.01.02 0 .03z"/><path d="m163.09 196.96c.45.18.64.55.95.76.22.15.68.19.88.06.35-.23.6-.63.88-.96.03.02.07.03.1.05.36-.35.73-.69 1.21-1.16-.01-.14-.04-.47-.06-.81-1.32 0-2.64 0-3.97 0 .01.81.01 1.44.01 2.06z"/><path d="m167.13 191.06s-.03.03-.03.03h.03c0-.01 0-.02 0-.03z"/><path d="m167.09 194.9c0-.01 0-.02 0-.03-.01 0-.02 0-.04 0 0-.01.04.03.04.03z"/><path d="m169 194.87c.03-.68.06-1.23.08-1.62.38-.24.68-.38.89-.6.06-.07-.08-.43-.22-.56-.3-.29-.66-.51-1-.76.04-.08.08-.15.12-.23-.58 0-1.16 0-1.74 0-.01 1.26-.03 2.51-.04 3.77z"/><path d="m182.07 136.13v6.01c1.65-.14.41-1.53 1.16-2.12.2-.04.56-.11.86-.18 0-.64 0-1.18 0-1.72-.41-.06-.74-.11-1.14-.17 0-.65 0-1.23 0-1.81-.29-.01-.58-.01-.88-.01z"/><path d="m137.42 205.86c-.09.07-.17.14-.26.21v2.84c.46.23.65.63.96.87.19.15.68.18.86.04.35-.27.58-.7.94-1.17 0-.43 0-1.05 0-1.71-.59 0-1.1 0-1.42 0-.42-.43-.75-.75-1.08-1.08z"/><path d="m168.95 176.98c-.63 0-1.18 0-1.77 0v3.98h1.77c0-1.41 0-2.71 0-3.98z"/><path d="m192.15 97.06c0-.01 0-.01 0-.02-.01 0-.03-.01-.04-.01 0-.01.04.03.04.03z"/><path d="m193.14 95.95c-.31-.77.45-1.97-1.03-1.96-.08-1.99-.08-1.99-1.14-1.85.65.98-.76 2.49 1.06 3.13.04.59.07 1.17.11 1.76.32.12.84.22.85.35.05.8.59.53.99.56 0-.58 0-1.16 0-1.8-.32-.07-.61-.13-.84-.19z"/><path d="m193.99 97.98s.03-.03.03-.03c-.01 0-.02 0-.03 0z"/><path d="m160.11 208.17c-.39-.04-.72-.07-1.08-.1-.15-.54.18-1.57-1.06-.93.4.86-.28 1-.85 1.1v1.76h2.99c0-.68 0-1.22 0-1.83z"/><path d="m121.4 202.38c.2-.42.52-.82.57-1.25.09-.79.01-1.59.03-2.39.02-.82-.36-.82-.97-.53v2.51c-1.06.36-1.24 1.15-.8 3.3h.79c0-.58 0-1.16 0-1.74.13.03.26.07.38.1z"/><path d="m121.03 204.06s.03-.03.03-.03c-.01 0-.02 0-.03 0z"/><path d="m149.05 212.01c-.72 0-1.35 0-1.97 0-.5 1.21.62.76 1.12 1.07v1.95h1.82c0-.68 0-1.3 0-2.09-.87.32-.93-.34-.97-.93z"/><path d="m171.04 94.99h2.03c0-.71 0-1.33 0-2.01-.76 0-1.39 0-2.03 0z"/><path d="m161.09 184.74c-.01-.24-.43-.47-.66-.7-.09.08-.17.17-.26.25v4.61h.94c.01-1.46.04-2.81-.02-4.16z"/><path d="m160.14 188.91s.03.03.03.03c0-.01 0-.02 0-.03-.01 0-.02 0-.03 0z"/><path d="m170.95 86.82h1.14c0-.91 0-1.8 0-2.71-.73 0-1.38 0-2.04 0-.06.09-.13.19-.19.28.32.3.65.59 1.09.99z"/><path d="m144.11 213.04v3.75c.11.1.23.2.34.3.2-.27.54-.53.56-.81.07-.87.01-1.75.03-2.63.03-.76-.31-.85-.93-.61z"/><path d="m170.88 91.82c0-.89 0-1.78 0-2.67-.65 0-1.23 0-1.8 0-.06.1-.12.2-.18.29.3.27.6.53 1.07.94.07 1.52.07 1.52.91 1.44z"/><path d="m193.91 116.92c0-.73 0-1.3 0-1.86-.63 0-1.17 0-1.77 0v1.82c.25.02.44.04.64.04z"/><path d="m160.2 204.07v2.7c.1.1.2.2.29.3.53-.55 1.19-1.03 1.5-1.68.1-.21-.69-.89-1.13-1.3-.11-.11-.41-.02-.66-.02z"/><path d="m176.02 98.55c.01-.8-.54-.56-.96-.57 0 .71 0 1.42-.01 2.13h1.83c.08-.1.17-.19.25-.29-.25-.3-.5-.6-.76-.9-.11-.13-.35-.25-.35-.37z"/><path d="m175.05 100.14c0-.01 0-.02 0-.03-.01 0-.02 0-.03 0 0 0 .03.03.03.03z"/><path d="m175.03 97.98h.03c0-.01 0-.02 0-.03z"/><path d="m163.98 205.95v.04c.01 0 .02-.01.03-.01z"/><path d="m163.98 205.99c-.93.06-1.89 1.15-1.78 2.06h1.78c0-.74 0-1.4 0-2.06z"/><path d="m165.07 205.04c.54-.1 1.47.15.94-.92-.67 0-1.32 0-2 0v1.8c.4-.18.79-.37 1.19-.55-.04-.1-.09-.21-.13-.33z"/><path d="m163.98 205.95s.03.03.03.03c0-.02 0-.03 0-.05-.01.01-.02.01-.03.02z"/><path d="m143.03 218.11c0-.89 0-1.46 0-2.06-.74 0-1.4 0-2.06 0 0 .29 0 .57 0 .56.82.6 1.38 1.01 2.06 1.5z"/><path d="m140.97 216.02s-.03.03-.03.03h.03c0-.01 0-.02 0-.03z"/><path d="m188.05 103.18c.76-.53 1.36-.95 2.09-1.47 0-.09 0-.34 0-.61-.69 0-1.39 0-2.09 0z"/><path d="m190.14 101.1h.03l-.03-.03z"/><path d="m179.16 112.12v1.79c.74.06 1.81-1.03 1.73-1.79-.26 0-.54 0-.81 0s-.54 0-.92 0z"/><path d="m179.14 178.13s-.03-.03-.03-.03v.03z"/><path d="m179.11 180.82c0-.89 0-1.79 0-2.69-.29 0-.58 0-.85 0-.28 2.73-.23 2.88.85 2.69z"/><path d="m156.94 205.94c0-.61 0-1.22 0-2.06-.68.49-1.25.87-1.76 1.32-.12.1.01.48.02.74z"/><path d="m157.09 92.98v1.05h1.9c-.05-.42-.09-.76-.12-1.05-.66 0-1.2 0-1.78 0z"/><path d="m185.09 113.04c0-.76 0-1.35 0-2.24-.4.17-.86.26-.87.39-.06.58-.01 1.18.07 1.76.01.06.51.06.8.09z"/><path d="m151.5 193.91c-.88.46-.34 1.4-.4 2.19h.88c0-.69 0-1.38 0-2.07-.15-.04-.32-.08-.48-.12z"/><path d="m151.99 196.14s.03-.03.03-.03c-.01 0-.02 0-.03 0z"/><path d="m191.1 98.94h.03l-.03-.03z"/><path d="m190.17 101.1c0-.01 0-.02 0-.03-.01 0-.02 0-.03 0 0 0 .03.03.03.03z"/><path d="m190.17 101.07h.93c0-.77 0-1.45 0-2.13-.28 0-.57 0-.93 0z"/><path d="m167.18 93.19c-.06.58-.01 1.18.07 1.76.01.06.51.06.8.08 0-.76 0-1.35 0-2.24-.41.18-.86.27-.87.4z"/><path d="m171.21 175.95c.57.05 1.21.09.84-.89-.72 0-1.34 0-1.98 0-.27 1.23.62.84 1.14.89z"/><path d="m138.11 193.32c.07.28.42.49.85.95 0-1.04 0-1.61 0-2.21-.34 0-.61 0-.87 0-.01.42-.09.87.02 1.26z"/><path d="m138.09 192.02s-.03.03-.03.03h.03c0-.01 0-.02 0-.03z"/><path d="m188.89 126.89c0-.65 0-1.2 0-1.73-1.16-.31-.84.51-.89 1.02-.07.67.14 1 .89.71z"/><path d="m156.05 193.91c0-.68 0-1.19 0-2.01-.41.19-.85.27-.87.42-.06.5-.02 1.02.08 1.52.01.07.51.05.79.07z"/><path d="m183.06 109.97c-.31-.79.4-1.84-1.2-1.99.44.78-.51 1.89 1.2 1.99z"/><path d="m192.15 97.06s-.04-.03-.04-.03v.03z"/><path d="m191.13 98.94c0-.01 0-.02 0-.03-.01 0-.02 0-.03 0 0 0 .03.03.03.03z"/><path d="m191.13 98.91h.98c0-.69 0-1.27 0-1.85-.32 0-.63 0-.98 0z"/><path d="m175.01 96.68c-.07-.28-.42-.49-.85-.95v2.21h.87c.01-.42.09-.86-.02-1.26z"/><path d="m175.03 97.98s.03-.03.03-.03c-.01 0-.02 0-.03 0z"/><path d="m191.01 89.23c-.02-.09-.51-.09-.82-.13v1.99c.39-.14.85-.2.87-.33.07-.5.04-1.03-.05-1.53z"/><path d="m106.08 214.03c.07-.41.13-.74.21-1.15h2.56c.68-.98-.7-2.54 1.09-3.02 0-.95 0-1.89 0-2.96-1.58.18-.51 1.48-1.11 1.93-.35.37-.7.73-1.17 1.23-.3 0-.81 0-1.11 0-1.05 1-1.97 1.86-3.11 2.94-.86 0-2.04 0-3.21 0v2.88c.98.65 2.61-.77 3.02 1.11h1.7c0-.94 0-1.87 0-2.78.49-.08.83-.14 1.13-.18z"/><path d="m104.95 217.02s.03-.03.03-.03c-.01 0-.02 0-.03 0z"/><path d="m96 214.17c-.64 0-1.18 0-1.78 0v2.44c.41.43.65.7.9.95.14.14.3.36.46.36s.46-.22.46-.34c-.01-.81.58-.54.98-.6 0-.58 0-1.16 0-1.92-.93.36-.96-.32-1.02-.89z"/><path d="m97.03 217.02s.03-.03.03-.03c-.01 0-.02 0-.03 0z"/><path d="m115.06 202.13s-.03-.03-.03-.03v.03z"/><path d="m113.14 204.98h1.89c0-1.04 0-1.94 0-2.85-.61 0-1.22 0-1.89 0z"/><path d="m113.14 205.01c0-.01 0-.02 0-.03-.01 0-.02 0-.03 0z"/><path d="m109.06 215.1c.01-.01.01-.02.02-.03-.02 0-.03 0-.05 0 0 0 .01.01.02.02l-.02-.02v.03z"/><path d="m110.9 212.99c-.11-.06-.21-.13-.32-.19-.27.36-.54.71-.81 1.07-.05.01-.1.01-.16.02-.18.4-.36.79-.54 1.19h1.83c0-.79 0-1.44 0-2.09z"/><path d="m113.14 205.01s-.03-.03-.03-.03v.03z"/><path d="m112.23 206.86c.1.06.21.12.31.19.19-.25.49-.48.55-.76.09-.4.02-.84.01-1.27-.29 0-.58 0-.88 0 .01.69.01 1.27.01 1.84z"/><path d="m133.46 173.1c-.48.49-.83.85-1.28 1.3v1.56h1.31c.54.46.87.74 1.21 1.03.1-.08.19-.16.29-.24 0-.55 0-1.1 0-1.71.41-.04.76-.07 1.1-.1.07-.1.13-.19.2-.29-.53-.46-1.05-.91-1.79-1.56-.24.01-.76.01-1.04.01z"/><path d="m100.3 32.82c1.3-.03.63-1.04.9-1.85-1.69.15-.75 1.23-.9 1.85z"/><path d="m67.05 35.06s-.03.03-.03.03h.05c-.01-.01-.01-.02-.02-.03z"/><path d="m68.06 36.19v1.71h2.04c0-.63 0-1.2 0-1.91-.82.24-1.28-.03-1.2-.9-.67 0-1.25 0-1.83 0 .19.4.38.8.57 1.2.14-.03.28-.07.42-.1z"/><path d="m68.94 40.11v.03h.03z"/><path d="m68.93 41.41c.09-.4.02-.84.01-1.26-.29 0-.58 0-.87 0v1.84c.1.06.21.12.31.18.2-.26.49-.49.55-.76z"/><path d="m70.09 38.91c-.42.03-.75.06-1.12.09v1.11h1.18c-.02-.46-.04-.8-.06-1.2z"/><path d="m68.94 40.11s.03.03.03.03c0-.01 0-.02 0-.03-.01 0-.02 0-.03 0z"/><path d="m194.95 74.99c.03.42.06.75.08 1.12h1.11c0-.37 0-.74 0-1.18-.45.02-.79.04-1.19.06z"/><path d="m196.15 76.14s.03-.03.03-.03c-.01 0-.02 0-.03 0z"/></svg>